<svg width="21" height="18" viewBox="0 0 21 18" fill="none" xmlns="http://www.w3.org/2000/svg">
<path d="M10.5001 17.8743C10.363 17.8751 10.2271 17.8489 10.1002 17.797C9.97327 17.7452 9.85784 17.6688 9.76051 17.5723L1.66676 9.4681C0.651509 8.44224 0.0820313 7.05723 0.0820312 5.61393C0.0820313 4.17063 0.651509 2.78562 1.66676 1.75976C2.68995 0.739461 4.07596 0.166504 5.52092 0.166504C6.96589 0.166504 8.3519 0.739461 9.37509 1.75976L10.5001 2.88476L11.6251 1.75976C12.6483 0.739461 14.0343 0.166504 15.4793 0.166504C16.9242 0.166504 18.3102 0.739461 19.3334 1.75976C20.3487 2.78562 20.9181 4.17063 20.9181 5.61393C20.9181 7.05723 20.3487 8.44224 19.3334 9.4681L11.2397 17.5723C11.1423 17.6688 11.0269 17.7452 10.9 17.797C10.7731 17.8489 10.6372 17.8751 10.5001 17.8743Z" fill="url(#paint0_radial_2169_3248)"/>
<defs>
<radialGradient id="paint0_radial_2169_3248" cx="0" cy="0" r="1" gradientUnits="userSpaceOnUse" gradientTransform="translate(4.66598 16.6348) rotate(-46.2876) scale(19.5987 20.0025)">
<stop stop-color="#EC534A"/>
<stop offset="1" stop-color="#EC6E47"/>
</radialGradient>
</defs>
</svg>
