<svg width="375" height="789" viewBox="0 0 375 789" fill="none" xmlns="http://www.w3.org/2000/svg">
<g filter="url(#filter0_dddddd_103_12)">
<circle cx="320" cy="378" r="25" fill="url(#paint0_radial_103_12)"/>
</g>
<circle opacity="0.3" cx="320" cy="378" r="30.5" stroke="#EC534A"/>
<path d="M320 385.5C319.89 385.501 319.782 385.48 319.68 385.438C319.579 385.397 319.486 385.336 319.408 385.258L312.933 378.775C312.121 377.954 311.666 376.846 311.666 375.692C311.666 374.537 312.121 373.429 312.933 372.608C313.752 371.792 314.861 371.334 316.017 371.334C317.173 371.334 318.281 371.792 319.1 372.608L320 373.508L320.9 372.608C321.719 371.792 322.827 371.334 323.983 371.334C325.139 371.334 326.248 371.792 327.067 372.608C327.879 373.429 328.334 374.537 328.334 375.692C328.334 376.846 327.879 377.954 327.067 378.775L320.592 385.258C320.514 385.336 320.421 385.397 320.32 385.438C320.218 385.48 320.11 385.501 320 385.5Z" fill="#F1F4F3"/>
<defs>
<filter id="filter0_dddddd_103_12" x="-158" y="0" width="956" height="956" filterUnits="userSpaceOnUse" color-interpolation-filters="sRGB">
<feFlood flood-opacity="0" result="BackgroundImageFix"/>
<feColorMatrix in="SourceAlpha" type="matrix" values="0 0 0 0 0 0 0 0 0 0 0 0 0 0 0 0 0 0 127 0" result="hardAlpha"/>
<feOffset dy="1.85185"/>
<feGaussianBlur stdDeviation="8.91319"/>
<feColorMatrix type="matrix" values="0 0 0 0 0.92549 0 0 0 0 0.32549 0 0 0 0 0.290196 0 0 0 0.052963 0"/>
<feBlend mode="normal" in2="BackgroundImageFix" result="effect1_dropShadow_103_12"/>
<feColorMatrix in="SourceAlpha" type="matrix" values="0 0 0 0 0 0 0 0 0 0 0 0 0 0 0 0 0 0 127 0" result="hardAlpha"/>
<feOffset dy="8.14815"/>
<feGaussianBlur stdDeviation="18.4556"/>
<feColorMatrix type="matrix" values="0 0 0 0 0.92549 0 0 0 0 0.32549 0 0 0 0 0.290196 0 0 0 0.0863704 0"/>
<feBlend mode="normal" in2="effect1_dropShadow_103_12" result="effect2_dropShadow_103_12"/>
<feColorMatrix in="SourceAlpha" type="matrix" values="0 0 0 0 0 0 0 0 0 0 0 0 0 0 0 0 0 0 127 0" result="hardAlpha"/>
<feOffset dy="20"/>
<feGaussianBlur stdDeviation="36.8063"/>
<feColorMatrix type="matrix" values="0 0 0 0 0.92549 0 0 0 0 0.32549 0 0 0 0 0.290196 0 0 0 0.11 0"/>
<feBlend mode="normal" in2="effect2_dropShadow_103_12" result="effect3_dropShadow_103_12"/>
<feColorMatrix in="SourceAlpha" type="matrix" values="0 0 0 0 0 0 0 0 0 0 0 0 0 0 0 0 0 0 127 0" result="hardAlpha"/>
<feOffset dy="38.5185"/>
<feGaussianBlur stdDeviation="72.1444"/>
<feColorMatrix type="matrix" values="0 0 0 0 0.92549 0 0 0 0 0.32549 0 0 0 0 0.290196 0 0 0 0.13363 0"/>
<feBlend mode="normal" in2="effect3_dropShadow_103_12" result="effect4_dropShadow_103_12"/>
<feColorMatrix in="SourceAlpha" type="matrix" values="0 0 0 0 0 0 0 0 0 0 0 0 0 0 0 0 0 0 127 0" result="hardAlpha"/>
<feOffset dy="64.8148"/>
<feGaussianBlur stdDeviation="132.649"/>
<feColorMatrix type="matrix" values="0 0 0 0 0.92549 0 0 0 0 0.32549 0 0 0 0 0.290196 0 0 0 0.167037 0"/>
<feBlend mode="normal" in2="effect4_dropShadow_103_12" result="effect5_dropShadow_103_12"/>
<feColorMatrix in="SourceAlpha" type="matrix" values="0 0 0 0 0 0 0 0 0 0 0 0 0 0 0 0 0 0 127 0" result="hardAlpha"/>
<feOffset dy="100"/>
<feGaussianBlur stdDeviation="226.5"/>
<feColorMatrix type="matrix" values="0 0 0 0 0.92549 0 0 0 0 0.32549 0 0 0 0 0.290196 0 0 0 1 0"/>
<feBlend mode="normal" in2="effect5_dropShadow_103_12" result="effect6_dropShadow_103_12"/>
<feBlend mode="normal" in="SourceGraphic" in2="effect6_dropShadow_103_12" result="shape"/>
</filter>
<radialGradient id="paint0_radial_103_12" cx="0" cy="0" r="1" gradientUnits="userSpaceOnUse" gradientTransform="translate(306 399.5) rotate(-50.9061) scale(51.5388)">
<stop stop-color="#EC534A"/>
<stop offset="1" stop-color="#EC6E47"/>
</radialGradient>
</defs>
</svg>
