<svg width="18" height="16" viewBox="0 0 18 16" fill="none" xmlns="http://www.w3.org/2000/svg">
<path d="M9.83333 11.3333V12.1666C9.83333 12.8296 9.56994 13.4655 9.1011 13.9344C8.63226 14.4032 7.99637 14.6666 7.33333 14.6666H4C3.33696 14.6666 2.70107 14.4032 2.23223 13.9344C1.76339 13.4655 1.5 12.8296 1.5 12.1666V3.83325C1.5 3.17021 1.76339 2.53433 2.23223 2.06549C2.70107 1.59664 3.33696 1.33325 4 1.33325H7.33333C7.99637 1.33325 8.63226 1.59664 9.1011 2.06549C9.56994 2.53433 9.83333 3.17021 9.83333 3.83325V4.66659M13.1667 11.3333L16.5 7.99992L13.1667 11.3333ZM16.5 7.99992L13.1667 4.66659L16.5 7.99992ZM16.5 7.99992H4.83333H16.5Z" stroke="url(#paint0_radial_2169_2364)" stroke-width="1.66667" stroke-linecap="round" stroke-linejoin="round"/>
<defs>
<radialGradient id="paint0_radial_2169_2364" cx="0" cy="0" r="1" gradientUnits="userSpaceOnUse" gradientTransform="translate(4.8 13.7333) rotate(-47.5707) scale(14.4513 14.7046)">
<stop stop-color="#EC534A"/>
<stop offset="1" stop-color="#EC6E47"/>
</radialGradient>
</defs>
</svg>
