<svg width="25" height="25" viewBox="0 0 25 25" fill="none" xmlns="http://www.w3.org/2000/svg">
<path d="M3.90625 20.3125C3.90625 21.1413 4.23549 21.9362 4.82154 22.5222C5.40759 23.1083 6.20245 23.4375 7.03125 23.4375H11.5234C11.5752 23.4375 11.6249 23.4169 11.6615 23.3803C11.6982 23.3437 11.7188 23.294 11.7188 23.2422V14.2578C11.7188 14.206 11.6982 14.1563 11.6615 14.1197C11.6249 14.0831 11.5752 14.0625 11.5234 14.0625H4.29688C4.19327 14.0625 4.09392 14.1037 4.02066 14.1769C3.94741 14.2502 3.90625 14.3495 3.90625 14.4531V20.3125Z" fill="url(#paint0_linear_2169_3138)"/>
<path d="M11.7188 12.3048V7.03138H13.2812V12.3048C13.2812 12.3566 13.3018 12.4063 13.3385 12.4429C13.3751 12.4795 13.4248 12.5001 13.4766 12.5001H20.3125C20.5787 12.5001 20.8429 12.4547 21.0938 12.3658C21.5503 12.2038 21.9456 11.9044 22.2253 11.5088C22.505 11.1133 22.6556 10.6409 22.6562 10.1564V9.37513C22.6562 8.75353 22.4093 8.15738 21.9698 7.71784C21.5302 7.27831 20.9341 7.03138 20.3125 7.03138H18.333C18.316 7.03111 18.2994 7.0264 18.2847 7.01771C18.2701 7.00903 18.258 6.99668 18.2496 6.98188C18.2412 6.96708 18.2368 6.95034 18.2369 6.93333C18.237 6.91632 18.2415 6.89962 18.25 6.88489C18.7021 6.12165 18.8489 5.21573 18.661 4.34877C18.4732 3.48182 17.9645 2.71792 17.2371 2.21026C16.5096 1.70261 15.6172 1.48871 14.7386 1.61148C13.8601 1.73424 13.0604 2.18458 12.5 2.8722C11.9396 2.18458 11.1399 1.73424 10.2614 1.61148C9.38284 1.48871 8.49036 1.70261 7.76291 2.21026C7.03546 2.71792 6.52682 3.48182 6.33896 4.34877C6.15111 5.21573 6.29793 6.12165 6.75 6.88489C6.75851 6.89962 6.76302 6.91632 6.76309 6.93333C6.76316 6.95034 6.75878 6.96708 6.7504 6.98188C6.74201 6.99668 6.7299 7.00903 6.71527 7.01771C6.70064 7.0264 6.684 7.03111 6.66699 7.03138H4.6875C4.0659 7.03138 3.46976 7.27831 3.03022 7.71784C2.59068 8.15738 2.34375 8.75353 2.34375 9.37513V10.1564C2.34444 10.6409 2.49497 11.1133 2.77471 11.5088C3.05444 11.9044 3.44969 12.2038 3.90625 12.3658C4.15714 12.4547 4.42134 12.5001 4.6875 12.5001H11.5234C11.5752 12.5001 11.6249 12.4795 11.6615 12.4429C11.6982 12.4063 11.7188 12.3566 11.7188 12.3048ZM13.2812 5.07825C13.2812 4.69196 13.3958 4.31434 13.6104 3.99315C13.825 3.67196 14.1301 3.42163 14.4869 3.2738C14.8438 3.12597 15.2365 3.08729 15.6154 3.16266C15.9943 3.23802 16.3423 3.42403 16.6154 3.69718C16.8886 3.97033 17.0746 4.31835 17.15 4.69722C17.2253 5.07609 17.1867 5.46879 17.0388 5.82568C16.891 6.18257 16.6407 6.4876 16.3195 6.70222C15.9983 6.91683 15.6207 7.03138 15.2344 7.03138H13.2812V5.07825ZM9.62598 3.13001C9.89355 3.11083 10.1622 3.14698 10.4152 3.2362C10.6682 3.32542 10.9001 3.4658 11.0964 3.64859C11.2928 3.83138 11.4494 4.05265 11.5565 4.29863C11.6635 4.5446 11.7188 4.80999 11.7188 5.07825V7.03138H9.76562C9.26059 7.03008 8.77569 6.83321 8.4127 6.48207C8.0497 6.13094 7.83683 5.65285 7.81876 5.14813C7.80069 4.64342 7.97883 4.15133 8.31579 3.77514C8.65275 3.39895 9.12233 3.1679 9.62598 3.1305V3.13001Z" fill="url(#paint1_linear_2169_3138)"/>
<path d="M13.4766 23.4375H17.9688C18.7976 23.4375 19.5924 23.1083 20.1785 22.5222C20.7645 21.9362 21.0938 21.1413 21.0938 20.3125V14.4531C21.0938 14.3495 21.0526 14.2502 20.9793 14.1769C20.9061 14.1037 20.8067 14.0625 20.7031 14.0625H13.4766C13.4248 14.0625 13.3751 14.0831 13.3385 14.1197C13.3018 14.1563 13.2812 14.206 13.2812 14.2578V23.2422C13.2812 23.294 13.3018 23.3437 13.3385 23.3803C13.3751 23.4169 13.4248 23.4375 13.4766 23.4375Z" fill="url(#paint2_linear_2169_3138)"/>
<defs>
<linearGradient id="paint0_linear_2169_3138" x1="4.49219" y1="22.9687" x2="13.1164" y2="16.6274" gradientUnits="userSpaceOnUse">
<stop stop-color="#26AD71"/>
<stop offset="1" stop-color="#32CB4B"/>
</linearGradient>
<linearGradient id="paint1_linear_2169_3138" x1="3.86719" y1="11.954" x2="13.2228" y2="-3.39763" gradientUnits="userSpaceOnUse">
<stop stop-color="#26AD71"/>
<stop offset="1" stop-color="#32CB4B"/>
</linearGradient>
<linearGradient id="paint2_linear_2169_3138" x1="13.8672" y1="22.9687" x2="22.4914" y2="16.6274" gradientUnits="userSpaceOnUse">
<stop stop-color="#26AD71"/>
<stop offset="1" stop-color="#32CB4B"/>
</linearGradient>
</defs>
</svg>
