<svg width="28" height="19" viewBox="0 0 28 19" fill="none" xmlns="http://www.w3.org/2000/svg">
<path d="M5.37465 18.5623C8.04549 18.5623 10.2712 16.5244 10.6751 13.8503H11.9858C12.2826 14.4694 12.9091 14.8994 13.6345 14.8994C14.6484 14.8994 15.4645 14.0481 15.4645 12.9991C15.4645 12.5348 15.2996 12.1049 15.0276 11.7695L19.0751 7.25538L19.3883 8.08942C17.7561 9.04384 16.6515 10.8753 16.6515 12.9647C16.6515 16.0601 19.0586 18.5709 22.0344 18.5709C24.9938 18.5709 27.3926 16.0601 27.3926 12.9647C27.3926 9.86929 24.9938 7.36716 22.0344 7.36716C21.581 7.36716 21.1359 7.42734 20.7155 7.53912L18.3826 1.37407C18.2178 0.926958 17.921 0.737793 17.4017 0.737793H14.9287C14.5247 0.737793 14.195 1.08173 14.195 1.50305C14.195 1.91577 14.5247 2.25971 14.9287 2.25971H17.1131C17.1873 2.25971 17.2038 2.27691 17.2286 2.3285L18.5475 5.83664L11.2192 6.92004L10.1393 4.81343H11.0461C11.45 4.81343 11.7715 4.4781 11.7715 4.05677C11.7715 3.63545 11.4417 3.29152 11.0461 3.29152H7.51791C7.12224 3.29152 6.7925 3.63545 6.7925 4.05677C6.7925 4.4781 7.11399 4.81343 7.51791 4.81343H8.56482L9.71888 7.1264L8.53184 8.43336C7.64981 7.76268 6.55345 7.36716 5.37465 7.36716C2.39881 7.36716 0 9.86929 0 12.9647C0 16.0601 2.40705 18.5623 5.37465 18.5623ZM13.6345 11.0989C13.5438 11.0989 13.4614 11.1075 13.3707 11.1161L11.8951 8.23559L17.0967 7.47034L13.7746 11.0989C13.7251 11.0989 13.6839 11.0989 13.6345 11.0989ZM10.7246 12.4316C10.6174 11.2966 10.1888 10.2562 9.53753 9.42217L10.4031 8.48495L12.1259 11.9243C12.0188 12.0791 11.9446 12.251 11.8869 12.4316H10.7246ZM5.37465 17.0318C3.2149 17.0318 1.4838 15.2261 1.4838 12.9647C1.4838 10.7205 3.22314 8.90627 5.37465 8.90627C6.16601 8.90627 6.89142 9.14702 7.50143 9.55975L5.50654 11.7523C5.46533 11.7437 5.42411 11.7437 5.37465 11.7437C4.72343 11.7437 4.21234 12.2682 4.2041 12.9647C4.19585 13.644 4.71518 14.1857 5.37465 14.1857C5.6879 14.1857 5.97641 14.0567 6.1825 13.8503H9.17482C8.79563 15.6732 7.23764 17.0318 5.37465 17.0318ZM22.0344 17.0318C19.8747 17.0318 18.1353 15.2261 18.1353 12.9647C18.1353 11.5288 18.8525 10.2648 19.9324 9.54255L20.9958 12.38C20.9133 12.552 20.8556 12.7498 20.8556 12.9647C20.8474 13.644 21.3667 14.1857 22.0344 14.1857C22.6856 14.1857 23.1967 13.644 23.1967 12.9647C23.1967 12.3886 22.834 11.9157 22.3229 11.7781L21.2678 8.98365C21.5151 8.93206 21.7706 8.90627 22.0344 8.90627C24.1777 8.90627 25.9253 10.7291 25.9253 12.9647C25.9253 15.2175 24.1777 17.0318 22.0344 17.0318ZM6.76777 12.4316L8.50711 10.5486C8.88631 11.0817 9.15009 11.7265 9.24077 12.4316H6.76777ZM13.6427 13.6096C13.3047 13.6096 13.0409 13.3344 13.0409 13.0163C13.0409 12.6724 13.313 12.38 13.6427 12.38C13.9724 12.38 14.228 12.6638 14.228 13.0163C14.228 13.343 13.9724 13.6096 13.6427 13.6096Z" fill="white"/>
</svg>
