<svg width="18" height="16" viewBox="0 0 18 16" fill="none" xmlns="http://www.w3.org/2000/svg">
<path fill-rule="evenodd" clip-rule="evenodd" d="M13.5337 3.197C13.567 3.25527 13.6253 3.29689 13.7003 3.29689C15.7003 3.29689 17.3337 4.92841 17.3337 6.92619V11.8707C17.3337 13.8685 15.7003 15.5 13.7003 15.5H4.30033C2.29199 15.5 0.666992 13.8685 0.666992 11.8707V6.92619C0.666992 4.92841 2.29199 3.29689 4.30033 3.29689C4.36699 3.29689 4.43366 3.2636 4.45866 3.197L4.50866 3.09711C4.53739 3.03665 4.56687 2.97455 4.5968 2.9115C4.80999 2.46246 5.04585 1.96567 5.19199 1.6737C5.57533 0.924528 6.22533 0.508324 7.03366 0.5H10.9587C11.767 0.508324 12.4253 0.924528 12.8087 1.6737C12.9399 1.93592 13.1399 2.35833 13.3326 2.76545C13.3724 2.84942 13.4119 2.93274 13.4503 3.01387L13.5337 3.197ZM12.9253 6.39345C12.9253 6.80966 13.2587 7.14262 13.6753 7.14262C14.092 7.14262 14.4337 6.80966 14.4337 6.39345C14.4337 5.97725 14.092 5.63596 13.6753 5.63596C13.2587 5.63596 12.9253 5.97725 12.9253 6.39345ZM7.55866 7.68368C7.95033 7.29245 8.45866 7.08435 9.00033 7.08435C9.54199 7.08435 10.0503 7.29245 10.4337 7.67536C10.817 8.05827 11.0253 8.56604 11.0253 9.1071C11.017 10.2225 10.117 11.1299 9.00033 11.1299C8.45866 11.1299 7.95033 10.9218 7.56699 10.5388C7.18366 10.1559 6.97533 9.64817 6.97533 9.1071V9.09878C6.96699 8.57436 7.17533 8.06659 7.55866 7.68368ZM11.3087 11.4212C10.717 12.0122 9.90033 12.3785 9.00033 12.3785C8.12533 12.3785 7.30866 12.0372 6.68366 11.4212C6.06699 10.7969 5.72533 9.98113 5.72533 9.1071C5.71699 8.2414 6.05866 7.42564 6.67533 6.80133C7.30033 6.17703 8.12533 5.83574 9.00033 5.83574C9.87533 5.83574 10.7003 6.17703 11.317 6.79301C11.9337 7.41731 12.2753 8.2414 12.2753 9.1071C12.267 10.0144 11.9003 10.8302 11.3087 11.4212Z" fill="#9E9E9E"/>
</svg>
