<svg width="24" height="22" viewBox="0 0 24 22" fill="none" xmlns="http://www.w3.org/2000/svg">
<path fill-rule="evenodd" clip-rule="evenodd" d="M18.73 6.77877H23.6663C23.6663 2.81536 21.2915 0.5 17.2678 0.5H6.73153C2.70782 0.5 0.333008 2.81536 0.333008 6.72821V15.2718C0.333008 19.1846 2.70782 21.5 6.73153 21.5H17.2678C21.2915 21.5 23.6663 19.1846 23.6663 15.2718V14.9078H18.73C16.4391 14.9078 14.5819 13.0971 14.5819 10.8635C14.5819 8.6299 16.4391 6.81921 18.73 6.81921V6.77877ZM18.73 8.51781H22.7952C23.2763 8.51781 23.6663 8.89806 23.6663 9.36712V12.3195C23.6607 12.7862 23.274 13.1633 22.7952 13.1688H18.8234C17.6636 13.184 16.6494 12.4098 16.3863 11.3084C16.2546 10.6247 16.4395 9.91916 16.8916 9.38092C17.3436 8.84268 18.0166 8.52675 18.73 8.51781ZM18.9063 11.6218H19.29C19.7826 11.6218 20.1819 11.2325 20.1819 10.7523C20.1819 10.2721 19.7826 9.88276 19.29 9.88276H18.9063C18.6708 9.88006 18.4439 9.96941 18.2763 10.1309C18.1088 10.2923 18.0145 10.5125 18.0145 10.7422C18.0145 11.2241 18.4121 11.6163 18.9063 11.6218ZM5.86041 6.77877H12.4456C12.9382 6.77877 13.3375 6.38947 13.3375 5.90924C13.3375 5.42902 12.9382 5.03972 12.4456 5.03972H5.86041C5.37188 5.03969 4.97424 5.42286 4.96856 5.89913C4.96853 6.38102 5.36619 6.77323 5.86041 6.77877Z" fill="url(#paint0_linear_3384_34808)"/>
<defs>
<linearGradient id="paint0_linear_3384_34808" x1="23.6663" y1="21.5" x2="-3.60222" y2="12.7153" gradientUnits="userSpaceOnUse">
<stop stop-color="#246BFD"/>
<stop offset="1" stop-color="#5089FF"/>
</linearGradient>
</defs>
</svg>
