<svg width="21" height="19" viewBox="0 0 21 19" fill="none" xmlns="http://www.w3.org/2000/svg">
<path d="M0.558594 1.37695C0.558594 1.83398 0.945312 2.2207 1.38477 2.2207H4.13574L5.49805 11.5195C5.69141 12.8467 6.39453 13.6553 7.73926 13.6553H17.9697C18.3828 13.6553 18.7607 13.3301 18.7607 12.8643C18.7607 12.4072 18.3828 12.082 17.9697 12.082H7.94141C7.51953 12.082 7.25586 11.792 7.19434 11.3438L7.05371 10.4297H18.04C19.3848 10.4297 20.0967 9.6123 20.29 8.27637L20.9492 3.87305C20.9668 3.75879 20.9844 3.60938 20.9844 3.5127C20.9844 2.99414 20.624 2.64258 20.0176 2.64258H5.9375L5.79688 1.69336C5.68262 0.928711 5.375 0.541992 4.39941 0.541992H1.38477C0.945312 0.541992 0.558594 0.928711 0.558594 1.37695ZM6.92188 16.5293C6.92188 17.3818 7.60742 18.0674 8.45996 18.0674C9.3125 18.0674 9.99805 17.3818 9.99805 16.5293C9.99805 15.6768 9.3125 14.9912 8.45996 14.9912C7.60742 14.9912 6.92188 15.6768 6.92188 16.5293ZM15.0342 16.5293C15.0342 17.3818 15.7285 18.0674 16.5811 18.0674C17.4336 18.0674 18.1104 17.3818 18.1104 16.5293C18.1104 15.6768 17.4336 14.9912 16.5811 14.9912C15.7285 14.9912 15.0342 15.6768 15.0342 16.5293Z" fill="white" fill-opacity="0.6"/>
</svg>
