<svg width="32" height="32" viewBox="0 0 32 32" fill="none" xmlns="http://www.w3.org/2000/svg">
<path fill-rule="evenodd" clip-rule="evenodd" d="M2.66602 16.0201C2.66602 8.99624 8.27935 2.66675 16.026 2.66675C23.5993 2.66675 29.3327 8.87606 29.3327 15.9801C29.3327 24.2191 22.6127 29.3334 15.9993 29.3334C13.8127 29.3334 11.386 28.7459 9.43935 27.5975C8.75935 27.1835 8.18602 26.8764 7.45268 27.1168L4.75935 27.918C4.07935 28.1316 3.46602 27.5975 3.66602 26.8764L4.55935 23.8852C4.70602 23.4713 4.67935 23.0306 4.46602 22.6834C3.31935 20.5736 2.66602 18.2635 2.66602 16.0201ZM14.266 16.0201C14.266 16.9682 15.026 17.7293 15.9727 17.7427C16.9193 17.7427 17.6793 16.9682 17.6793 16.0335C17.6793 15.0854 16.9193 14.3242 15.9727 14.3242C15.0393 14.3109 14.266 15.0854 14.266 16.0201ZM20.4127 16.0335C20.4127 16.9682 21.1727 17.7427 22.1193 17.7427C23.066 17.7427 23.826 16.9682 23.826 16.0335C23.826 15.0854 23.066 14.3242 22.1193 14.3242C21.1727 14.3242 20.4127 15.0854 20.4127 16.0335ZM9.82602 17.7427C8.89268 17.7427 8.11935 16.9682 8.11935 16.0335C8.11935 15.0854 8.87935 14.3242 9.82602 14.3242C10.7727 14.3242 11.5327 15.0854 11.5327 16.0335C11.5327 16.9682 10.7727 17.7293 9.82602 17.7427Z" fill="white"/>
</svg>
