<svg width="20" height="20" viewBox="0 0 20 20" fill="none" xmlns="http://www.w3.org/2000/svg">
<path d="M1 18C1 16.2824 1.68231 14.6352 2.89683 13.4206C4.11135 12.2061 5.7586 11.5238 7.47619 11.5238C9.19378 11.5238 10.841 12.2061 12.0555 13.4206C13.2701 14.6352 13.9524 16.2824 13.9524 18H12.3333C12.3333 16.7118 11.8216 15.4764 10.9107 14.5655C9.99982 13.6546 8.76438 13.1429 7.47619 13.1429C6.188 13.1429 4.95256 13.6546 4.04167 14.5655C3.13078 15.4764 2.61905 16.7118 2.61905 18H1ZM7.47619 10.7143C4.79262 10.7143 2.61905 8.54071 2.61905 5.85714C2.61905 3.17357 4.79262 1 7.47619 1C10.1598 1 12.3333 3.17357 12.3333 5.85714C12.3333 8.54071 10.1598 10.7143 7.47619 10.7143ZM7.47619 9.09524C9.26524 9.09524 10.7143 7.64619 10.7143 5.85714C10.7143 4.0681 9.26524 2.61905 7.47619 2.61905C5.68714 2.61905 4.2381 4.0681 4.2381 5.85714C4.2381 7.64619 5.68714 9.09524 7.47619 9.09524ZM14.1823 12.0929C15.3199 12.6053 16.2854 13.4353 16.9627 14.4832C17.6399 15.5311 18.0001 16.7523 18 18H16.381C16.3811 17.0642 16.111 16.1482 15.6031 15.3622C15.0951 14.5763 14.371 13.9537 13.5177 13.5695L14.1815 12.0929H14.1823ZM13.6253 2.95338C14.4409 3.28957 15.1383 3.86048 15.6289 4.59366C16.1195 5.32684 16.3813 6.18924 16.381 7.07143C16.3813 8.18236 15.9662 9.25328 15.2173 10.0738C14.4684 10.8943 13.4397 11.4052 12.3333 11.506V9.87643C12.9331 9.79052 13.4896 9.51459 13.9211 9.08913C14.3525 8.66368 14.6362 8.11112 14.7305 7.51257C14.8247 6.91401 14.7246 6.301 14.4449 5.76352C14.1651 5.22605 13.7204 4.79241 13.176 4.52629L13.6253 2.95338V2.95338Z" fill="#1DAB87"/>
</svg>
