<svg width="18" height="18" viewBox="0 0 18 18" fill="none" xmlns="http://www.w3.org/2000/svg">
<path d="M12.5252 14.2345H5.47515C5.16015 14.2345 4.80765 13.987 4.70265 13.687L1.59765 5.00203C1.15515 3.75703 1.67265 3.37453 2.73765 4.13953L5.66265 6.23203C6.15015 6.56953 6.70515 6.39703 6.91515 5.84953L8.23515 2.33203C8.65515 1.20703 9.35265 1.20703 9.77265 2.33203L11.0926 5.84953C11.3026 6.39703 11.8577 6.56953 12.3377 6.23203L15.0826 4.27453C16.2526 3.43453 16.8151 3.86203 16.3351 5.21953L13.3051 13.702C13.1926 13.987 12.8402 14.2345 12.5252 14.2345Z" stroke="#FB923C" stroke-width="2" stroke-linecap="round" stroke-linejoin="round"/>
<path d="M4.875 16.5H13.125" stroke="#FB923C" stroke-width="2" stroke-linecap="round" stroke-linejoin="round"/>
<path d="M7.125 10.5H10.875" stroke="#FB923C" stroke-width="2" stroke-linecap="round" stroke-linejoin="round"/>
</svg>
