<svg width="37" height="31" viewBox="0 0 37 31" fill="none" xmlns="http://www.w3.org/2000/svg">
<path d="M24.2021 0.408163C21.6276 0.402089 18.9176 1.83521 17.5631 4.89251L16.6914 4.89046C15.0377 4.88655 13.6947 3.53788 13.6986 1.88336C13.699 1.70175 13.6335 1.52581 13.5137 1.38926C13.4246 1.28576 12.5815 0.380677 10.7021 0.376243C8.82272 0.371809 7.97536 1.27291 7.88575 1.37598C7.76534 1.51197 7.69897 1.68759 7.69854 1.86921C7.68683 6.83206 11.7144 10.8787 16.6773 10.8904L16.9713 10.8911C17.2679 11.7146 17.7764 12.4545 18.4931 12.9895C18.3262 13.5948 18.2413 14.1974 18.2399 14.7863C18.2377 15.6967 18.4172 16.5884 18.7756 17.4455C17.8456 17.9736 17.1492 18.8523 16.842 19.8916C14.6418 19.9113 12.9459 20.3673 11.8893 21.18C11.0335 20.6733 9.19992 19.8729 6.15603 19.8657C2.39882 19.8568 0.147545 23.496 0.13314 29.6015C0.132162 30.016 0.466831 30.3523 0.881392 30.3533L3.88141 30.3603C4.29597 30.3613 4.63222 30.0266 4.6332 29.6121C4.64097 26.3162 5.36275 25.8638 6.14202 25.8657C6.70452 25.867 6.81261 26.0049 7.07255 26.3381C7.39382 26.749 7.87871 27.3698 9.13849 27.3728L11.1205 27.3774C11.9904 28.065 15.2487 30.3872 19.6314 30.3976C25.3383 30.4109 36.1387 27.3016 36.1667 15.4364C36.1957 3.13105 27.5405 0.416039 24.2021 0.408163ZM16.6809 9.39044C12.6643 9.38097 9.38174 6.19889 9.20654 2.22658C9.45151 2.07704 9.92807 1.87454 10.6986 1.87636C11.4984 1.87824 11.9798 2.09911 12.2124 2.24612C12.3944 4.55737 14.3296 6.38494 16.688 6.3905L17.0431 6.39134C16.815 7.28602 16.6835 8.28183 16.6809 9.39044ZM19.6348 28.8974C15.1773 28.8869 11.9158 26.0916 11.8837 26.063C11.7477 25.9448 11.5721 25.8784 11.392 25.878L9.14196 25.8727C8.61167 25.8714 8.50799 25.7378 8.25535 25.4142C7.92966 24.9975 7.43747 24.3687 6.14549 24.3656C3.55708 24.3595 3.1947 27.0979 3.14217 28.8585L1.64958 28.855C1.75204 26.4024 2.42018 21.3568 6.15263 21.3656C8.64577 21.3715 10.1766 21.9625 10.9198 22.3561C10.7417 22.7402 10.6484 23.1647 10.6473 23.6262C10.6463 24.0408 10.981 24.377 11.3956 24.378C11.8101 24.379 12.1464 24.0443 12.1474 23.6297C12.1482 23.2643 12.2705 22.9511 12.488 22.685C12.5012 22.6718 12.5144 22.658 12.5277 22.6433C12.5438 22.6243 12.56 22.6046 12.5747 22.5848C13.3927 21.7167 15.2567 21.3871 17.0278 21.3912C17.0878 21.3914 17.1464 21.3981 17.205 21.4034L17.4086 21.4193C17.7909 21.4502 18.1431 21.1493 18.1894 20.7598C18.3149 19.7163 19.0304 18.8428 20.0125 18.5338C20.2266 18.4662 20.3998 18.3062 20.4838 18.0977C20.5664 17.8891 20.5522 17.6539 20.4443 17.4567C19.9747 16.6037 19.738 15.7067 19.7402 14.7897C19.7416 14.1796 19.8558 13.5698 20.0874 12.9258C20.2127 12.5789 20.0671 12.1926 19.7438 12.0146C18.7766 11.4813 18.1783 10.4772 18.1809 9.39398C18.193 4.24065 21.3084 1.90132 24.1985 1.90814C27.1194 1.91503 34.6927 4.35798 34.6666 15.4329C34.6415 26.1116 24.8233 28.9097 19.6348 28.8974Z" fill="#001133"/>
</svg>
