<svg width="83" height="80" viewBox="0 0 83 80" fill="none" xmlns="http://www.w3.org/2000/svg">
<circle cx="42.5" cy="40.5" r="31.5" fill="#FF981F"/>
<circle cx="79.5" cy="12.5" r="3.5" fill="#FF981F"/>
<circle cx="8.5" cy="4.5" r="4.5" fill="#FF981F"/>
<circle cx="4" cy="59" r="2" fill="#FF981F"/>
<circle cx="73" cy="71" r="1" fill="#FF981F"/>
<path fill-rule="evenodd" clip-rule="evenodd" d="M47.7348 34.8987C47.7348 38.0805 45.1837 40.6318 41.9997 40.6318C38.8167 40.6318 36.2645 38.0805 36.2645 34.8987C36.2645 31.7169 38.8167 29.1667 41.9997 29.1667C45.1837 29.1667 47.7348 31.7169 47.7348 34.8987ZM41.9997 50.8334C37.3006 50.8334 33.333 50.0697 33.333 47.123C33.333 44.1752 37.3255 43.4385 41.9997 43.4385C46.6999 43.4385 50.6663 44.2023 50.6663 47.149C50.6663 50.0967 46.6738 50.8334 41.9997 50.8334Z" fill="white"/>
<circle cx="47" cy="2" r="1" fill="#FF981F"/>
<circle cx="27.5" cy="78.5" r="1.5" fill="#FF981F"/>
<circle cx="54.5" cy="76.5" r="0.5" fill="#FF981F"/>
<circle cx="76" cy="49" r="1" fill="#FF981F"/>
<circle cx="0.5" cy="33.5" r="0.5" fill="#FF981F"/>
</svg>
