<svg width="83" height="80" viewBox="0 0 83 80" fill="none" xmlns="http://www.w3.org/2000/svg">
<circle cx="42.5" cy="40.5" r="31.5" fill="#FF981F"/>
<circle cx="79.5" cy="12.5" r="3.5" fill="#FF981F"/>
<circle cx="8.5" cy="4.5" r="4.5" fill="#FF981F"/>
<circle cx="4" cy="59" r="2" fill="#FF981F"/>
<circle cx="73" cy="71" r="1" fill="#FF981F"/>
<path fill-rule="evenodd" clip-rule="evenodd" d="M51.0985 36.9071L51.8787 37.6871C52.4965 38.2938 52.8324 39.1171 52.8324 39.9838C52.8433 40.8504 52.5073 41.6748 51.9004 42.2913C51.8932 42.2992 51.886 42.3062 51.8788 42.3132C51.8751 42.3166 51.8715 42.3201 51.8679 42.3238L51.0985 43.0929C50.795 43.3963 50.6216 43.8079 50.6216 44.2423V45.3571C50.6216 47.1554 49.1586 48.619 47.3596 48.619H46.2434C45.8099 48.619 45.3981 48.7913 45.0946 49.0946L44.3143 49.8746C43.6749 50.5148 42.8405 50.8279 42.006 50.8279C41.1715 50.8279 40.3371 50.5148 39.6977 49.8865L38.9065 49.0946C38.6031 48.7913 38.1913 48.619 37.7578 48.619H36.6416C34.8426 48.619 33.3795 47.1554 33.3795 45.3571V44.2423C33.3795 43.8079 33.2061 43.3963 32.9027 43.0821L32.1224 42.3129C30.8545 41.0465 30.8436 38.9763 32.1116 37.699L32.9027 36.9071C33.2061 36.6038 33.3795 36.1921 33.3795 35.7479V34.6429C33.3795 32.8446 34.8426 31.3832 36.6416 31.3832H37.7578C38.1913 31.3832 38.6031 31.2088 38.9065 30.9054L39.6868 30.1254C40.9548 28.8482 43.0247 28.8482 44.3035 30.1157L45.0946 30.9054C45.3981 31.2088 45.8099 31.3832 46.2434 31.3832H47.3596C49.1586 31.3832 50.6216 32.8446 50.6216 34.6429V35.7598C50.6216 36.1921 50.795 36.6038 51.0985 36.9071ZM39.21 43.7327C39.4701 43.7327 39.7085 43.6352 39.8819 43.451L45.4522 37.8837C45.8207 37.5154 45.8207 36.9077 45.4522 36.5393C45.0838 36.1721 44.4877 36.1721 44.1192 36.5393L38.5489 42.1077C38.1804 42.476 38.1804 43.0827 38.5489 43.451C38.7223 43.6352 38.9607 43.7327 39.21 43.7327ZM43.837 42.7784C43.837 43.3092 44.2596 43.7317 44.7907 43.7317C45.3108 43.7317 45.7335 43.3092 45.7335 42.7784C45.7335 42.2595 45.3108 41.8359 44.7907 41.8359C44.2596 41.8359 43.837 42.2595 43.837 42.7784ZM39.2217 36.2683C39.7419 36.2683 40.1645 36.6908 40.1645 37.2108C40.1645 37.7427 39.7419 38.1641 39.2217 38.1641C38.7015 38.1641 38.268 37.7427 38.268 37.2108C38.268 36.6908 38.7015 36.2683 39.2217 36.2683Z" fill="white"/>
<circle cx="47" cy="2" r="1" fill="#FF981F"/>
<circle cx="27.5" cy="78.5" r="1.5" fill="#FF981F"/>
<circle cx="54.5" cy="76.5" r="0.5" fill="#FF981F"/>
<circle cx="76" cy="49" r="1" fill="#FF981F"/>
<circle cx="0.5" cy="33.5" r="0.5" fill="#FF981F"/>
</svg>
