<svg width="83" height="80" viewBox="0 0 83 80" fill="none" xmlns="http://www.w3.org/2000/svg">
<circle cx="42.5" cy="40.5" r="31.5" fill="#FF981F"/>
<circle cx="79.5" cy="12.5" r="3.5" fill="#FF981F"/>
<circle cx="8.5" cy="4.5" r="4.5" fill="#FF981F"/>
<circle cx="4" cy="59" r="2" fill="#FF981F"/>
<circle cx="73" cy="71" r="1" fill="#FF981F"/>
<path fill-rule="evenodd" clip-rule="evenodd" d="M47.417 32.4167C48.6087 32.4167 49.5837 33.3917 49.5837 34.5834V37.4542C49.5837 37.9417 49.4212 38.4184 49.107 38.8084L45.337 43.5209C44.9253 44.0301 44.3078 44.3334 43.647 44.3334H39.8337C39.8337 46.1317 38.382 47.5834 36.5837 47.5834C34.7853 47.5834 33.3337 46.1317 33.3337 44.3334H32.2503C31.6545 44.3334 31.167 43.8459 31.167 43.2501V41.0834C31.167 38.6892 33.1062 36.7501 35.5003 36.7501H38.7503C39.3462 36.7501 39.8337 37.2376 39.8337 37.8334V42.1667H43.647L47.417 37.4542V34.5834H45.2503C44.6545 34.5834 44.167 34.0959 44.167 33.5001C44.167 32.9042 44.6545 32.4167 45.2503 32.4167H47.417ZM35.5003 44.3334C35.5003 44.9292 35.9878 45.4167 36.5837 45.4167C37.1795 45.4167 37.667 44.9292 37.667 44.3334H35.5003ZM38.7503 33.5001H35.5003C34.9045 33.5001 34.417 33.9876 34.417 34.5834C34.417 35.1792 34.9045 35.6667 35.5003 35.6667H38.7503C39.3462 35.6667 39.8337 35.1792 39.8337 34.5834C39.8337 33.9876 39.3462 33.5001 38.7503 33.5001ZM46.3337 44.3334C46.3337 42.5351 47.7853 41.0834 49.5837 41.0834C51.382 41.0834 52.8337 42.5351 52.8337 44.3334C52.8337 46.1317 51.382 47.5834 49.5837 47.5834C47.7853 47.5834 46.3337 46.1317 46.3337 44.3334ZM48.5003 44.3334C48.5003 44.9292 48.9878 45.4167 49.5837 45.4167C50.1795 45.4167 50.667 44.9292 50.667 44.3334C50.667 43.7376 50.1795 43.2501 49.5837 43.2501C48.9878 43.2501 48.5003 43.7376 48.5003 44.3334Z" fill="white"/>
<circle cx="47" cy="2" r="1" fill="#FF981F"/>
<circle cx="27.5" cy="78.5" r="1.5" fill="#FF981F"/>
<circle cx="54.5" cy="76.5" r="0.5" fill="#FF981F"/>
<circle cx="76" cy="49" r="1" fill="#FF981F"/>
<circle cx="0.5" cy="33.5" r="0.5" fill="#FF981F"/>
</svg>
