<svg width="14" height="14" viewBox="0 0 14 14" fill="none" xmlns="http://www.w3.org/2000/svg">
<path d="M6.48641 3.86067V1.188C6.48641 0.903812 6.71307 0.666992 6.99974 0.666992C7.25641 0.666992 7.47386 0.865986 7.50832 1.11805L7.51307 1.188V3.86067L10.6997 3.86088C12.2863 3.86088 13.5899 5.16018 13.6631 6.7806L13.6663 6.92438V10.2839C13.6663 11.9157 12.4081 13.2551 10.845 13.3303L10.7063 13.3337H3.29301C1.70634 13.3337 0.409068 12.0409 0.336233 10.4145L0.333008 10.2701L0.333008 6.9175C0.333008 5.28573 1.58495 3.9398 3.14767 3.86422L3.28634 3.86088H6.48634V8.12914L5.41967 7.02765C5.21967 6.82112 4.89301 6.82112 4.69301 7.02765C4.59301 7.13091 4.54634 7.2686 4.54634 7.40629C4.54634 7.51093 4.57621 7.61997 4.63935 7.71228L4.69301 7.77804L6.63301 9.78825C6.72634 9.89151 6.85967 9.94659 6.99967 9.94659C7.11079 9.94659 7.2219 9.90834 7.30986 9.83583L7.35967 9.78825L9.29967 7.77804C9.49967 7.57151 9.49967 7.23418 9.29967 7.02765C9.11786 6.8399 8.83136 6.82283 8.6305 6.97644L8.57301 7.02765L7.51301 8.12914V3.86088L6.48641 3.86067Z" fill="#212121"/>
</svg>
