<svg width="25" height="24" viewBox="0 0 25 24" fill="none" xmlns="http://www.w3.org/2000/svg">
<g id="element-plus">
<g id="element-plus_2">
<g id="element-plus_3">
<path id="Vector" d="M22.125 8.27V4.23C22.125 2.64 21.485 2 19.895 2H15.855C14.265 2 13.625 2.64 13.625 4.23V8.27C13.625 9.86 14.265 10.5 15.855 10.5H19.895C21.485 10.5 22.125 9.86 22.125 8.27Z" stroke="#1D3A70" stroke-width="1.5" stroke-linecap="round" stroke-linejoin="round"/>
<path id="Vector_2" d="M10.625 8.52V3.98C10.625 2.57 9.985 2 8.395 2H4.355C2.765 2 2.125 2.57 2.125 3.98V8.51C2.125 9.93 2.765 10.49 4.355 10.49H8.395C9.985 10.5 10.625 9.93 10.625 8.52Z" stroke="#1D3A70" stroke-width="1.5" stroke-linecap="round" stroke-linejoin="round"/>
<path id="Vector_3" d="M10.625 19.77V15.73C10.625 14.14 9.985 13.5 8.395 13.5H4.355C2.765 13.5 2.125 14.14 2.125 15.73V19.77C2.125 21.36 2.765 22 4.355 22H8.395C9.985 22 10.625 21.36 10.625 19.77Z" stroke="#1D3A70" stroke-width="1.5" stroke-linecap="round" stroke-linejoin="round"/>
<path id="Vector_4" d="M14.625 17.5H20.625" stroke="black" stroke-width="1.5" stroke-linecap="round"/>
<path id="Vector_5" d="M17.625 20.5V14.5" stroke="black" stroke-width="1.5" stroke-linecap="round"/>
</g>
</g>
</g>
</svg>
