<svg width="18" height="16" viewBox="0 0 18 16" fill="none" xmlns="http://www.w3.org/2000/svg">
<path fill-rule="evenodd" clip-rule="evenodd" d="M13.1162 0.700195C14.2337 0.700195 15.3087 1.14186 16.0995 1.93436C16.8912 2.7252 17.3337 3.79186 17.3337 4.90853V11.4919C17.3337 13.8169 15.442 15.7002 13.1162 15.7002H4.88366C2.55783 15.7002 0.666992 13.8169 0.666992 11.4919V4.90853C0.666992 2.58353 2.54949 0.700195 4.88366 0.700195H13.1162ZM14.442 6.1502L14.5087 6.08353C14.7078 5.84186 14.7078 5.49186 14.4995 5.2502C14.3837 5.12603 14.2245 5.0502 14.0587 5.03353C13.8837 5.02436 13.717 5.08353 13.5912 5.2002L9.83366 8.2002C9.35033 8.60103 8.65783 8.60103 8.16699 8.2002L4.41699 5.2002C4.15783 5.00853 3.79949 5.03353 3.58366 5.25853C3.35866 5.48353 3.33366 5.84186 3.52449 6.09186L3.63366 6.2002L7.42533 9.15853C7.89199 9.5252 8.45783 9.72519 9.05033 9.72519C9.64116 9.72519 10.217 9.5252 10.6828 9.15853L14.442 6.1502Z" fill="#9E9E9E"/>
</svg>
