<svg width="22" height="21" viewBox="0 0 22 21" fill="none" xmlns="http://www.w3.org/2000/svg">
<path fill-rule="evenodd" clip-rule="evenodd" d="M5.81614 14.0029C5.65614 14.0029 5.49514 13.9519 5.35914 13.8479C5.03114 13.5949 4.96914 13.1239 5.22214 12.7959L8.21514 8.90587C8.33714 8.74687 8.51814 8.64387 8.71614 8.61887C8.91814 8.59287 9.11614 8.64887 9.27314 8.77387L12.0931 10.9889L14.5601 7.80587C14.8141 7.47687 15.2841 7.41587 15.6121 7.67187C15.9401 7.92587 16.0001 8.39687 15.7461 8.72387L12.8161 12.5039C12.6941 12.6619 12.5141 12.7649 12.3161 12.7889C12.1161 12.8159 11.9181 12.7579 11.7601 12.6349L8.94214 10.4209L6.41114 13.7099C6.26314 13.9019 6.04114 14.0029 5.81614 14.0029Z" fill="#9E9E9E"/>
<mask id="mask0_3356_11605" style="mask-type:luminance" maskUnits="userSpaceOnUse" x="15" y="0" width="7" height="6">
<path fill-rule="evenodd" clip-rule="evenodd" d="M15.8945 0.00012207H21.2385V5.34502H15.8945V0.00012207Z" fill="white"/>
</mask>
<g mask="url(#mask0_3356_11605)">
<path fill-rule="evenodd" clip-rule="evenodd" d="M18.5665 1.5C17.9205 1.5 17.3945 2.025 17.3945 2.672C17.3945 3.318 17.9205 3.845 18.5665 3.845C19.2125 3.845 19.7385 3.318 19.7385 2.672C19.7385 2.025 19.2125 1.5 18.5665 1.5ZM18.5665 5.345C17.0935 5.345 15.8945 4.146 15.8945 2.672C15.8945 1.198 17.0935 0 18.5665 0C20.0405 0 21.2385 1.198 21.2385 2.672C21.2385 4.146 20.0405 5.345 18.5665 5.345Z" fill="#9E9E9E"/>
</g>
<mask id="mask1_3356_11605" style="mask-type:luminance" maskUnits="userSpaceOnUse" x="0" y="0" width="21" height="21">
<path fill-rule="evenodd" clip-rule="evenodd" d="M0.599609 0.842163H20.4615V20.7032H0.599609V0.842163Z" fill="white"/>
</mask>
<g mask="url(#mask1_3356_11605)">
<path fill-rule="evenodd" clip-rule="evenodd" d="M14.8326 20.7032H6.22861C2.86161 20.7032 0.599609 18.3382 0.599609 14.8182V6.73616C0.599609 3.21116 2.86161 0.842163 6.22861 0.842163H13.4966C13.9106 0.842163 14.2466 1.17816 14.2466 1.59216C14.2466 2.00616 13.9106 2.34216 13.4966 2.34216H6.22861C3.72061 2.34216 2.09961 4.06616 2.09961 6.73616V14.8182C2.09961 17.5232 3.68161 19.2032 6.22861 19.2032H14.8326C17.3406 19.2032 18.9616 17.4822 18.9616 14.8182V7.77916C18.9616 7.36516 19.2976 7.02916 19.7116 7.02916C20.1256 7.02916 20.4616 7.36516 20.4616 7.77916V14.8182C20.4616 18.3382 18.1996 20.7032 14.8326 20.7032Z" fill="#9E9E9E"/>
</g>
</svg>
