<svg width="16" height="16" viewBox="0 0 16 16" fill="none" xmlns="http://www.w3.org/2000/svg">
<path fill-rule="evenodd" clip-rule="evenodd" d="M5.91817 4.25237C5.91817 5.49682 4.89225 6.50548 3.62559 6.50548C2.35967 6.50548 1.33301 5.49682 1.33301 4.25237C1.33301 3.00866 2.35967 2 3.62559 2C4.89225 2 5.91817 3.00866 5.91817 4.25237ZM13.6619 3.26555C14.216 3.26555 14.6663 3.70802 14.6663 4.25237C14.6663 4.79746 14.216 5.23992 13.6619 5.23992H9.27822C8.72341 5.23992 8.27304 4.79746 8.27304 4.25237C8.27304 3.70802 8.72341 3.26555 9.27822 3.26555H13.6619ZM2.33819 10.6386H6.72187C7.27668 10.6386 7.72705 11.0811 7.72705 11.6262C7.72705 12.1705 7.27668 12.6137 6.72187 12.6137H2.33819C1.78338 12.6137 1.33301 12.1705 1.33301 11.6262C1.33301 11.0811 1.78338 10.6386 2.33819 10.6386ZM12.3738 13.8519C13.6404 13.8519 14.6663 12.8432 14.6663 11.5995C14.6663 10.355 13.6404 9.34638 12.3738 9.34638C11.1078 9.34638 10.0812 10.355 10.0812 11.5995C10.0812 12.8432 11.1078 13.8519 12.3738 13.8519Z" fill="#FF981F"/>
</svg>
