<svg width="20" height="20" viewBox="0 0 20 20" fill="none" xmlns="http://www.w3.org/2000/svg">
<path fill-rule="evenodd" clip-rule="evenodd" d="M9.97291 0C9.35834 0 8.72188 0.169888 8.05145 0.483666C7.30068 0.835049 6.54664 1.34071 5.63147 2.06109L4.01634 3.36538L2.8573 4.3646L2.26428 4.88509L1.86551 5.24263L1.64612 5.44505L1.47917 5.60609C1.45645 5.62888 1.43645 5.64949 1.41945 5.6677C0.568082 6.58002 0.198263 7.47988 0.0640874 9.30867L0.0342688 9.80743C0.0301361 9.89428 0.0264083 9.98303 0.0230654 10.0738L0.00746411 10.6427L0.000128311 11.2631L0 11.8783L0.0116896 12.6943L0.0280434 13.2074C0.0313773 13.2909 0.035023 13.3734 0.0389916 13.4549L0.0667694 13.9322L0.10284 14.3862C0.109574 14.46 0.116675 14.5328 0.124155 14.6047L0.173682 15.025C0.182726 15.0932 0.192171 15.1605 0.20203 15.2269L0.266231 15.6147L0.340894 15.9815C0.888059 18.4175 2.20584 19.4234 5.07218 19.7996L5.50279 19.8503L5.95605 19.8925L6.4325 19.9269C6.51387 19.932 6.59623 19.9368 6.67959 19.9413L7.19185 19.9648L7.72865 19.9819L8.29054 19.9931L9.18161 20L11.1254 19.9989L12.0082 19.9879L12.5641 19.9735L13.0945 19.9526L13.6 19.9248L14.0812 19.8894C14.1594 19.8828 14.2366 19.8759 14.3128 19.8687L14.7585 19.8209C14.8309 19.8122 14.9023 19.8031 14.9727 19.7936L15.3842 19.7321C18.1869 19.2675 19.366 18.0769 19.7923 15.2645L19.8482 14.8516L19.8944 14.4161L19.9315 13.9573C19.9369 13.8789 19.942 13.7994 19.9468 13.719L19.9713 13.2243C19.9747 13.1398 19.9778 13.0543 19.9806 12.9678L19.9937 12.4358L20 11.8783L19.9999 11.2631L19.9925 10.6426L19.977 10.0736L19.9521 9.55235L19.9171 9.0751C19.7689 7.40135 19.3953 6.54033 18.5813 5.66777L18.4521 5.53785L18.2681 5.36443L17.6453 4.80426L15.9776 3.35828L14.3653 2.06845C13.4899 1.38749 12.7578 0.897033 12.0346 0.544841C11.3096 0.1918 10.6274 0 9.97291 0ZM9.97291 1.39538C10.3703 1.39538 10.8407 1.52765 11.3788 1.78966C11.9242 2.05523 12.5043 2.43279 13.1902 2.9519L13.5352 3.21818L15.0506 4.43235L16.3891 5.59034L17.0735 6.19618L17.3753 6.47447L17.5009 6.59948C18.1179 7.26084 18.3941 7.93344 18.4973 9.49932L18.5213 9.94919C18.5246 10.0281 18.5276 10.109 18.5303 10.192L18.5429 10.7157L18.5487 11.2937L18.5477 12.1177L18.5419 12.6151L18.5315 13.0865L18.5157 13.5326L18.4937 13.9542L18.4648 14.352L18.4284 14.7265L18.3836 15.0786L18.3298 15.4088C17.9882 17.2731 17.1482 18.0597 15.1636 18.3848L14.812 18.4361L14.4373 18.479L14.0387 18.5143L13.6155 18.5427L13.167 18.5647L12.6925 18.5812L11.9302 18.5969L10.816 18.6046L8.61203 18.6023L8.06925 18.5969L7.55432 18.5875L7.06652 18.5736L6.60512 18.5544L6.1694 18.5293L5.75864 18.4976L5.37212 18.4586C5.30967 18.4514 5.24821 18.4439 5.18771 18.4361L4.83618 18.3848C2.79498 18.0504 1.96471 17.2277 1.6421 15.2464L1.59291 14.9053C1.58545 14.8466 1.57836 14.787 1.57161 14.7265L1.53516 14.352L1.50631 13.9542L1.48433 13.5326L1.46849 13.0865L1.45807 12.6151L1.4506 11.5937L1.45332 11.0074L1.46192 10.4737L1.47709 9.98901C1.4802 9.91211 1.48362 9.83709 1.48735 9.7639L1.51365 9.34594C1.52376 9.21349 1.53525 9.0877 1.54824 8.96799L1.59178 8.62647L1.64497 8.31779C1.79057 7.58413 2.033 7.12465 2.42032 6.68689L2.5481 6.54977L2.77553 6.33428L3.34835 5.82147L5.01026 4.38141L6.55089 3.14076C7.38604 2.48336 8.05907 2.03203 8.6867 1.73829C9.17429 1.51008 9.604 1.39538 9.97291 1.39538ZM13.5391 13.8473C13.5391 13.4619 13.2142 13.1496 12.8134 13.1496H7.18701L7.08854 13.1559C6.73434 13.2021 6.46134 13.4941 6.46134 13.8473C6.46134 14.2326 6.78623 14.545 7.18701 14.545H12.8134L12.9119 14.5386C13.2661 14.4924 13.5391 14.2005 13.5391 13.8473Z" fill="#8D8D9B"/>
</svg>
