<svg width="21" height="20" viewBox="0 0 21 20" fill="none" xmlns="http://www.w3.org/2000/svg">
<mask id="mask0_3378_38339" style="mask-type:luminance" maskUnits="userSpaceOnUse" x="0" y="-1" width="21" height="21">
<path fill-rule="evenodd" clip-rule="evenodd" d="M0 -0.00012207H20.4725V19.5009H0V-0.00012207Z" fill="white"/>
</mask>
<g mask="url(#mask0_3378_38339)">
<path fill-rule="evenodd" clip-rule="evenodd" d="M1.82396 9.123C3.22596 13.485 8.76496 17.012 10.237 17.885C11.714 17.003 17.293 13.437 18.65 9.127C19.541 6.341 18.714 2.812 15.428 1.753C13.836 1.242 11.979 1.553 10.697 2.545C10.429 2.751 10.057 2.755 9.78696 2.551C8.42896 1.53 6.65496 1.231 5.03796 1.753C1.75696 2.811 0.932957 6.34 1.82396 9.123ZM10.238 19.501C10.114 19.501 9.99096 19.471 9.87896 19.41C9.56596 19.239 2.19296 15.175 0.395957 9.581C0.394957 9.581 0.394957 9.58 0.394957 9.58C-0.733043 6.058 0.522957 1.632 4.57796 0.324996C6.48196 -0.291004 8.55696 -0.020004 10.235 1.039C11.861 0.010996 14.021 -0.273004 15.887 0.324996C19.946 1.634 21.206 6.059 20.079 9.58C18.34 15.11 10.913 19.235 10.598 19.408C10.486 19.47 10.362 19.501 10.238 19.501Z" fill="url(#paint0_linear_3378_38339)"/>
</g>
<defs>
<linearGradient id="paint0_linear_3378_38339" x1="20.4728" y1="19.501" x2="-3.69656" y2="12.1442" gradientUnits="userSpaceOnUse">
<stop stop-color="#FF4D67"/>
<stop offset="1" stop-color="#FF8A9B"/>
</linearGradient>
</defs>
</svg>
