<svg width="20" height="20" viewBox="0 0 20 20" fill="none" xmlns="http://www.w3.org/2000/svg">
<path fill-rule="evenodd" clip-rule="evenodd" d="M13.85 0.500709C14.481 0.500709 15.111 0.589709 15.71 0.790709C19.401 1.99071 20.731 6.04071 19.62 9.58071C18.99 11.3897 17.96 13.0407 16.611 14.3897C14.68 16.2597 12.561 17.9197 10.28 19.3497L10.03 19.5007L9.77002 19.3397C7.48102 17.9197 5.35002 16.2597 3.40102 14.3797C2.06102 13.0307 1.03002 11.3897 0.390017 9.58071C-0.739983 6.04071 0.590017 1.99071 4.32102 0.769709C4.61102 0.669709 4.91002 0.599709 5.21002 0.560709H5.33002C5.61102 0.519709 5.89002 0.500709 6.17002 0.500709H6.28002C6.91002 0.519709 7.52002 0.629709 8.11102 0.830709H8.17002C8.21002 0.849709 8.24002 0.870709 8.26002 0.889709C8.48102 0.960709 8.69002 1.04071 8.89002 1.15071L9.27002 1.32071C9.36184 1.36968 9.4649 1.44451 9.55398 1.50918C9.61041 1.55015 9.66123 1.58705 9.70002 1.61071C9.71634 1.62034 9.73292 1.63002 9.74964 1.63978C9.83538 1.68983 9.9247 1.74197 10 1.79971C11.111 0.950709 12.46 0.490709 13.85 0.500709ZM16.51 7.70071C16.92 7.68971 17.27 7.36071 17.3 6.93971V6.82071C17.33 5.41971 16.481 4.15071 15.19 3.66071C14.78 3.51971 14.33 3.74071 14.18 4.16071C14.04 4.58071 14.26 5.04071 14.68 5.18971C15.321 5.42971 15.75 6.06071 15.75 6.75971V6.79071C15.731 7.01971 15.8 7.24071 15.94 7.41071C16.08 7.58071 16.29 7.67971 16.51 7.70071Z" fill="url(#paint0_linear_3356_8855)"/>
<defs>
<linearGradient id="paint0_linear_3356_8855" x1="20.0002" y1="19.5007" x2="-3.60052" y2="12.2977" gradientUnits="userSpaceOnUse">
<stop stop-color="#FF4D67"/>
<stop offset="1" stop-color="#FF8A9B"/>
</linearGradient>
</defs>
</svg>
