<svg width="18" height="18" viewBox="0 0 18 18" fill="none" xmlns="http://www.w3.org/2000/svg">
<path d="M2.55111 14.0836C2.59688 13.9152 2.49572 13.6809 2.39918 13.5121C2.36912 13.4617 2.33652 13.413 2.30149 13.3659C1.47352 12.1103 1.03221 10.6392 1.03226 9.13516C1.0188 4.81785 4.59879 1.31439 9.02571 1.31439C12.8865 1.31439 16.1092 3.98901 16.8622 7.53939C16.9751 8.06577 17.032 8.60259 17.0322 9.14093C17.0322 13.4644 13.5903 17.0229 9.1634 17.0229C8.45955 17.0229 7.50956 16.8459 6.99148 16.7009C6.47341 16.5559 5.9561 16.3636 5.82264 16.3121C5.68614 16.2596 5.54118 16.2326 5.39495 16.2325C5.23522 16.2319 5.07703 16.2637 4.92995 16.3259L2.32111 17.2675C2.26395 17.2921 2.20339 17.3079 2.14149 17.3144C2.09265 17.3142 2.04431 17.3044 1.99929 17.2854C1.95428 17.2665 1.91347 17.2388 1.87923 17.2039C1.845 17.1691 1.81802 17.1278 1.79985 17.0825C1.78169 17.0371 1.7727 16.9886 1.77342 16.9398C1.77662 16.8969 1.78436 16.8545 1.79649 16.8132L2.55111 14.0836Z" stroke="#001133" stroke-miterlimit="10" stroke-linecap="round"/>
</svg>
