<svg width="25" height="24" viewBox="0 0 25 24" fill="none" xmlns="http://www.w3.org/2000/svg">
<g id="money-send">
<g id="money-send_2">
<g id="Group">
<path id="Vector" d="M9.875 13.75C9.875 14.72 10.625 15.5 11.545 15.5H13.425C14.225 15.5 14.875 14.82 14.875 13.97C14.875 13.06 14.475 12.73 13.885 12.52L10.875 11.47C10.285 11.26 9.88501 10.94 9.88501 10.02C9.88501 9.17999 10.535 8.48999 11.335 8.48999H13.215C14.135 8.48999 14.885 9.26999 14.885 10.24" stroke="black" stroke-width="1.5" stroke-linecap="round" stroke-linejoin="round"/>
<path id="Vector_2" d="M12.375 7.5V16.5" stroke="black" stroke-width="1.5" stroke-linecap="round" stroke-linejoin="round"/>
</g>
<path id="Vector_3" d="M22.375 12C22.375 17.52 17.895 22 12.375 22C6.855 22 2.375 17.52 2.375 12C2.375 6.48 6.855 2 12.375 2" stroke="#1D3A70" stroke-width="1.5" stroke-linecap="round" stroke-linejoin="round"/>
<path id="Vector_4" d="M22.375 6V2H18.375" stroke="black" stroke-width="1.5" stroke-linecap="round" stroke-linejoin="round"/>
<path id="Vector_5" d="M17.375 7L22.375 2" stroke="black" stroke-width="1.5" stroke-linecap="round" stroke-linejoin="round"/>
</g>
</g>
</svg>
