<svg width="25" height="24" viewBox="0 0 25 24" fill="none" xmlns="http://www.w3.org/2000/svg">
<g id="money-recive">
<g id="money-recive_2">
<g id="Group">
<path id="Vector" d="M10.375 13.75C10.375 14.72 11.125 15.5 12.045 15.5H13.925C14.725 15.5 15.375 14.82 15.375 13.97C15.375 13.06 14.975 12.73 14.385 12.52L11.375 11.47C10.785 11.26 10.385 10.94 10.385 10.02C10.385 9.17999 11.035 8.48999 11.835 8.48999H13.715C14.635 8.48999 15.385 9.26999 15.385 10.24" stroke="black" stroke-width="1.5" stroke-linecap="round" stroke-linejoin="round"/>
<path id="Vector_2" d="M12.875 7.5V16.5" stroke="black" stroke-width="1.5" stroke-linecap="round" stroke-linejoin="round"/>
</g>
<path id="Vector_3" d="M22.875 12C22.875 17.52 18.395 22 12.875 22C7.355 22 2.875 17.52 2.875 12C2.875 6.48 7.355 2 12.875 2" stroke="#1D3A70" stroke-width="1.5" stroke-linecap="round" stroke-linejoin="round"/>
<path id="Vector_4" d="M17.875 3V7H21.875" stroke="black" stroke-width="1.5" stroke-linecap="round" stroke-linejoin="round"/>
<path id="Vector_5" d="M22.875 2L17.875 7" stroke="black" stroke-width="1.5" stroke-linecap="round" stroke-linejoin="round"/>
</g>
</g>
</svg>
