<svg width="22" height="22" viewBox="0 0 22 22" fill="none" xmlns="http://www.w3.org/2000/svg">
<path id="Vector" d="M3.02577 3.12726L6.96442 16.8797L10.341 10.142L16.6022 7.64306L3.02577 3.12726ZM0.731009 0.0288124L21.6194 6.97483C21.7275 7.01059 21.822 7.07864 21.89 7.16976C21.958 7.26089 21.9964 7.37068 21.9998 7.48427C22.0031 7.59785 21.9715 7.70973 21.909 7.80474C21.8465 7.89975 21.7562 7.97329 21.6505 8.01541L11.9505 11.8863L7.0355 21.6936C6.98549 21.7934 6.9064 21.8759 6.80861 21.9302C6.71082 21.9844 6.59888 22.0079 6.48746 21.9976C6.37604 21.9873 6.27033 21.9437 6.1842 21.8724C6.09806 21.8012 6.03552 21.7056 6.00475 21.5983L0.0212539 0.705906C-0.0064625 0.608846 -0.00708235 0.506077 0.0194611 0.408692C0.0460045 0.311306 0.0987031 0.223003 0.171869 0.153313C0.245034 0.0836235 0.335888 0.0351947 0.434624 0.0132534C0.533359 -0.00868783 0.636225 -0.00330805 0.73212 0.0288124H0.731009Z" fill="#1D3A70"/>
</svg>
