<svg width="72" height="32" viewBox="0 0 72 32" fill="none" xmlns="http://www.w3.org/2000/svg">
<rect x="0.25" y="4.25" width="31.5" height="23.881" rx="3.75" fill="white" stroke="#1D3A70" stroke-width="0.5"/>
<path d="M0.5 11.5H9C10.1046 11.5 11 12.3954 11 13.5V17.375M11 27.9V23.25M11 23.25V17.375M11 23.25H0.5M11 17.375H0.5" stroke="#1D3A70" stroke-width="0.5"/>
<path d="M31.5 11.5H21.5M21.5 11.5V17.375M21.5 11.5V4.5M21.5 27.9V23.25M21.5 23.25V17.375M21.5 23.25H31.5M21.5 17.375H31.5" stroke="#1D3A70" stroke-width="0.5"/>
<path d="M56.16 8.90991C59.48 13.2099 59.48 18.7999 56.16 23.0999" stroke="white" stroke-width="1.5" stroke-linecap="round" stroke-linejoin="round"/>
<path d="M59.6401 6C64.3201 12.06 64.3201 19.94 59.6401 26" stroke="white" stroke-width="1.5" stroke-linecap="round" stroke-linejoin="round"/>
<path d="M52.51 10.79C54.95 13.94 54.95 18.05 52.51 21.2" stroke="white" stroke-width="1.5" stroke-linecap="round" stroke-linejoin="round"/>
<path d="M48.85 13.4C50.07 14.98 50.07 17.03 48.85 18.61" stroke="white" stroke-width="1.5" stroke-linecap="round" stroke-linejoin="round"/>
</svg>
