<svg width="24" height="24" viewBox="0 0 24 24" fill="none" xmlns="http://www.w3.org/2000/svg">
<mask id="mask0_3384_30190" style="mask-type:luminance" maskUnits="userSpaceOnUse" x="0" y="0" width="24" height="24">
<path fill-rule="evenodd" clip-rule="evenodd" d="M0.333984 0.333984H23.6705V23.6685H0.333984V0.333984Z" fill="white"/>
</mask>
<g mask="url(#mask0_3384_30190)">
<path fill-rule="evenodd" clip-rule="evenodd" d="M10.7695 21.4219C11.4578 22.0939 12.5662 22.0858 13.2498 21.3986L14.0922 20.5586C14.7455 19.9064 15.6485 19.5343 16.569 19.5343H17.7707C18.7437 19.5343 19.5347 18.7433 19.5347 17.7714V16.5709C19.5347 15.6364 19.8963 14.7579 20.5567 14.0964L21.3967 13.2553C21.7385 12.9123 21.9217 12.4678 21.9205 11.9964C21.9193 11.5263 21.7338 11.0841 21.399 10.7504L20.5578 9.9081C19.8963 9.24193 19.5347 8.3646 19.5347 7.4301V6.23193C19.5347 5.25893 18.7437 4.46794 17.7707 4.46794H16.5713C15.6368 4.46794 14.7583 4.1051 14.0968 3.44827L13.2545 2.60477C12.5533 1.9106 11.4345 1.9141 10.7497 2.6036L9.91083 3.44477C9.24116 4.10627 8.36266 4.46794 7.43166 4.46794H6.23116C5.25933 4.4691 4.46833 5.2601 4.46833 6.23193V7.42777C4.46833 8.36227 4.10549 9.24077 3.44749 9.90344L2.61916 10.7329C2.61099 10.7423 2.60283 10.7493 2.59466 10.7574C1.90983 11.4469 1.91333 12.5658 2.60283 13.2506L3.44516 14.0929C4.10549 14.7556 4.46833 15.6341 4.46833 16.5686V17.7714C4.46833 18.7433 5.25816 19.5343 6.23116 19.5343H7.42933C8.36499 19.5354 9.24349 19.8983 9.90499 20.5574L10.7462 21.3963C10.7532 21.4044 10.7613 21.4126 10.7695 21.4219V21.4219ZM11.9992 23.6689C11.1043 23.6689 10.2095 23.3306 9.52466 22.6516C9.51533 22.6423 9.50599 22.6329 9.49666 22.6224L8.66833 21.7953C8.33816 21.4674 7.89716 21.2854 7.42816 21.2843H6.23116C4.29333 21.2843 2.71833 19.7081 2.71833 17.7714V16.5686C2.71833 16.0996 2.53516 15.6598 2.20616 15.3284L1.36733 14.4908C0.00466026 13.1351 -0.011673 10.9278 1.32649 9.5511C1.33699 9.5406 1.34749 9.5301 1.35799 9.5196L2.20733 8.66793C2.53516 8.33777 2.71833 7.8956 2.71833 7.42777V6.23194C2.71833 4.29527 4.29333 2.7191 6.22999 2.71794H7.43166C7.89949 2.71794 8.34049 2.53477 8.67533 2.2046L9.50949 1.3681C10.8733 -0.00506468 13.1028 -0.0120647 14.4783 1.35527L15.3312 2.2081C15.6613 2.53594 16.1023 2.71794 16.5713 2.71794H17.7707C19.7085 2.71794 21.2847 4.2941 21.2847 6.23194V7.4301C21.2847 7.89794 21.4667 8.3401 21.7968 8.6726L22.6345 9.51143C23.2983 10.1706 23.667 11.0514 23.6705 11.9906C23.674 12.9298 23.3112 13.8129 22.6497 14.4791L21.7945 15.3319C21.4667 15.6621 21.2847 16.1019 21.2847 16.5709V17.7714C21.2847 19.7081 19.7085 21.2843 17.7718 21.2843H16.569C16.107 21.2843 15.6555 21.4709 15.3277 21.7964L14.49 22.6341C13.8052 23.3236 12.9022 23.6689 11.9992 23.6689V23.6689Z" fill="#212121"/>
</g>
<path fill-rule="evenodd" clip-rule="evenodd" d="M9.00264 15.8755C8.77864 15.8755 8.55464 15.7903 8.3843 15.6188C8.04247 15.277 8.04247 14.724 8.3843 14.3821L14.381 8.3843C14.7228 8.04247 15.277 8.04247 15.6188 8.3843C15.9606 8.72614 15.9606 9.2803 15.6188 9.62214L9.62097 15.6188C9.45064 15.7903 9.22664 15.8755 9.00264 15.8755" fill="#212121"/>
<path fill-rule="evenodd" clip-rule="evenodd" d="M14.9215 16.0824C14.2764 16.0824 13.749 15.5609 13.749 14.9157C13.749 14.2705 14.2659 13.749 14.911 13.749H14.9215C15.5667 13.749 16.0882 14.2705 16.0882 14.9157C16.0882 15.5609 15.5667 16.0824 14.9215 16.0824" fill="#212121"/>
<path fill-rule="evenodd" clip-rule="evenodd" d="M9.08754 10.2493C8.44237 10.2493 7.91504 9.72785 7.91504 9.08268C7.91504 8.43752 8.43187 7.91602 9.07704 7.91602H9.08754C9.73271 7.91602 10.2542 8.43752 10.2542 9.08268C10.2542 9.72785 9.73271 10.2493 9.08754 10.2493" fill="#212121"/>
</svg>
