<svg width="22" height="24" viewBox="0 0 22 24" fill="none" xmlns="http://www.w3.org/2000/svg">
<path fill-rule="evenodd" clip-rule="evenodd" d="M16.752 6.16671C16.7891 6.08402 16.8065 5.99391 16.8028 5.90342H16.8333C16.7029 2.79027 14.1324 0.333374 11.0058 0.333374C7.87916 0.333374 5.30868 2.79027 5.1782 5.90342C5.16282 5.99051 5.16282 6.07961 5.1782 6.16671H5.087C3.59192 6.16671 1.99374 7.15367 1.52975 9.80679L0.622389 17.0339C-0.119994 22.3401 2.61239 23.6667 6.17995 23.6667H15.8516C19.4088 23.6667 22.0587 21.7458 21.3988 17.0339L20.5018 9.80679C19.9553 7.22796 18.4086 6.16671 16.9342 6.16671H16.752ZM15.0754 6.16671C15.0429 6.08264 15.0257 5.99349 15.0246 5.90342C15.0246 3.66634 13.2048 1.85282 10.96 1.85282C8.71525 1.85282 6.89548 3.66634 6.89548 5.90342C6.91086 5.99051 6.91086 6.07961 6.89548 6.16671H15.0754ZM7.61316 12.1734C7.04371 12.1734 6.58208 11.6982 6.58208 11.1121C6.58208 10.526 7.04371 10.0509 7.61316 10.0509C8.18262 10.0509 8.64425 10.526 8.64425 11.1121C8.64425 11.6982 8.18262 12.1734 7.61316 12.1734ZM13.3357 11.1121C13.3357 11.6982 13.7973 12.1734 14.3668 12.1734C14.9362 12.1734 15.3979 11.6982 15.3979 11.1121C15.3979 10.526 14.9362 10.0509 14.3668 10.0509C13.7973 10.0509 13.3357 10.526 13.3357 11.1121Z" fill="url(#paint0_linear_3384_67465)"/>
<defs>
<linearGradient id="paint0_linear_3384_67465" x1="21.5" y1="23.6667" x2="-3.86179" y2="17.0486" gradientUnits="userSpaceOnUse">
<stop stop-color="#1BAC4B"/>
<stop offset="1" stop-color="#46D375"/>
</linearGradient>
</defs>
</svg>
