<svg width="20" height="20" viewBox="0 0 20 20" fill="none" xmlns="http://www.w3.org/2000/svg">
<g id="Icon">
<path id="Combined Shape" fill-rule="evenodd" clip-rule="evenodd" d="M9.94103 1.66733C12.4908 1.63817 14.5954 3.4867 14.7289 5.83825L14.7353 6.02011V7.39709C16.6945 8.22054 17.5 9.82918 17.5 12.5161C17.5 16.7867 15.466 18.3337 9.99955 18.3337C4.53332 18.3337 2.5 16.7869 2.5 12.5161C2.5 9.82915 3.30515 8.22055 5.26408 7.39711L5.26415 5.99296C5.30776 3.61319 7.37926 1.69724 9.94103 1.66733ZM6.12064 8.39704C6.14888 8.38938 6.17635 8.38003 6.20291 8.36913C6.67572 8.21319 7.23225 8.1048 7.88346 8.03625L8.30764 7.99815C8.38046 7.99267 8.45437 7.9876 8.52936 7.98295L8.99249 7.95995L9.48235 7.94646C9.56625 7.94498 9.6513 7.94388 9.73749 7.94315L9.99955 7.94206C10.1766 7.94206 10.349 7.94351 10.5168 7.94646L11.0067 7.95995L11.4699 7.98296C11.5449 7.98761 11.6188 7.99267 11.6916 7.99816L12.1158 8.03626C12.767 8.10482 13.3235 8.2132 13.7964 8.36912C13.823 8.38004 13.8505 8.3894 13.8788 8.39707C15.5832 8.99161 16.1624 10.2364 16.1624 12.5161C16.1624 15.5826 15.115 16.7768 11.6916 17.0348L11.2416 17.0628L10.7651 17.081L10.2616 17.0899C10.1754 17.0906 10.0881 17.0909 9.99955 17.0909L9.48234 17.0865C9.39843 17.0851 9.31566 17.0832 9.23402 17.081L8.7576 17.0628L8.30761 17.0348C4.95741 16.7823 3.88324 15.6332 3.83905 12.7093L3.83761 12.5161C3.83761 10.2362 4.41651 8.99155 6.12064 8.39704ZM13.3977 6.99047C12.6586 6.834 11.8074 6.74401 10.8343 6.71237L10.2841 6.70078H9.71503L9.16481 6.71237C8.1918 6.744 7.34064 6.83399 6.60167 6.99045V6.00354L6.60919 5.84033C6.72913 4.21897 8.17864 2.93072 9.95767 2.90995C11.8341 2.88849 13.3746 4.28441 13.3977 6.02775L13.3977 6.99047ZM9.99958 11.1168C10.3382 11.1168 10.618 11.3506 10.6623 11.6539L10.6684 11.7382V13.5782C10.6684 13.9214 10.369 14.1996 9.99958 14.1996C9.66099 14.1996 9.38117 13.9658 9.33688 13.6625L9.33078 13.5782V11.7382C9.33078 11.395 9.63021 11.1168 9.99958 11.1168Z" fill="#8D8D9B"/>
</g>
</svg>
