<svg width="23" height="25" viewBox="0 0 23 25" fill="none" xmlns="http://www.w3.org/2000/svg">
<g id="patient">
<path id="Vector" d="M14.5514 10.7258L10.9894 17.0382L7.61254 10.7342C3.49805 12.0862 0.44003 15.766 0 20.2171C2.20703 23.628 6.34904 25 11.0951 25C15.8409 25 19.9831 23.628 22.1901 20.2174C21.749 15.7565 18.679 12.0707 14.5514 10.7258ZM18.0357 18.8842H16.9295V19.9901H15.9866V18.8842H14.8805V17.9413H15.9866V16.8352H16.9295V17.9413H18.0357V18.8842Z" fill="white"/>
<path id="Vector_2" d="M11.0953 10.7258C14.0572 10.7258 16.4582 8.32476 16.4582 5.36291C16.4582 2.40106 14.0572 0 11.0953 0C8.13348 0 5.73242 2.40106 5.73242 5.36291C5.73242 8.32476 8.13348 10.7258 11.0953 10.7258Z" fill="white"/>
</g>
</svg>
