<svg width="25" height="24" viewBox="0 0 25 24" fill="none" xmlns="http://www.w3.org/2000/svg">
<g id="refresh-circle">
<g id="vuesax/linear/refresh-circle">
<g id="refresh-circle_2">
<path id="Vector" d="M12.625 22C18.1478 22 22.625 17.5228 22.625 12C22.625 6.47715 18.1478 2 12.625 2C7.10215 2 2.625 6.47715 2.625 12C2.625 17.5228 7.10215 22 12.625 22Z" stroke="#1D3A70" stroke-width="1.5" stroke-linecap="round" stroke-linejoin="round"/>
<g id="Group">
<path id="Vector_2" d="M8.63486 14.5101C8.81486 14.8101 9.03485 15.0901 9.28485 15.3401C11.1249 17.1801 14.1148 17.1801 15.9648 15.3401C16.7148 14.5901 17.1449 13.64 17.2849 12.67" stroke="black" stroke-width="1.5" stroke-linecap="round" stroke-linejoin="round"/>
<path id="Vector_3" d="M7.96484 11.3301C8.10484 10.3501 8.53485 9.41003 9.28485 8.66003C11.1249 6.82003 14.1148 6.82003 15.9648 8.66003C16.2248 8.92003 16.4348 9.20005 16.6148 9.49005" stroke="black" stroke-width="1.5" stroke-linecap="round" stroke-linejoin="round"/>
<path id="Vector_4" d="M8.44531 17.18V14.51H11.1153" stroke="black" stroke-width="1.5" stroke-linecap="round" stroke-linejoin="round"/>
<path id="Vector_5" d="M16.8048 6.82007V9.49005H14.1349" stroke="black" stroke-width="1.5" stroke-linecap="round" stroke-linejoin="round"/>
</g>
</g>
</g>
</g>
</svg>
