<svg width="24" height="24" viewBox="0 0 24 24" fill="none" xmlns="http://www.w3.org/2000/svg">
<g id="Iconly / Home Copy">
<path id="Combined Shape" fill-rule="evenodd" clip-rule="evenodd" d="M11.267 2C6.14849 2 2 6.14839 2 11.2668C2 16.3852 6.14849 20.5336 11.267 20.5336C16.3849 20.5336 20.534 16.3848 20.534 11.2668C20.534 6.14871 16.3849 2 11.267 2ZM11.267 3.49288C15.5604 3.49288 19.0411 6.97323 19.0411 11.2668C19.0411 15.5603 15.5604 19.0407 11.267 19.0407C6.97301 19.0407 3.49292 15.5607 3.49292 11.2668C3.49292 6.97289 6.97301 3.49288 11.267 3.49288ZM19.8497 17.6986C18.6623 17.6986 17.6985 18.662 17.6985 19.8488C17.6985 21.0371 18.6618 22 19.8497 22C21.0376 22 22 21.0371 22 19.8488C22 18.6619 21.0371 17.6986 19.8497 17.6986ZM19.8497 19.1915C20.2124 19.1915 20.5071 19.4863 20.5071 19.8488C20.5071 20.2128 20.2129 20.5071 19.8497 20.5071C19.4862 20.5071 19.1914 20.2125 19.1914 19.8488C19.1914 19.4866 19.4867 19.1915 19.8497 19.1915Z" fill="#8D8D9B"/>
</g>
</svg>
