<svg width="22" height="22" viewBox="0 0 22 22" fill="none" xmlns="http://www.w3.org/2000/svg">
<path id="Vector" d="M11 0C17.0753 0 22 4.9247 22 11C22 17.0753 17.0753 22 11 22C4.9247 22 0 17.0753 0 11C0 4.9247 4.9247 0 11 0ZM11.4026 12.5026L7.5867 19.1136C9.13547 19.7616 10.8365 19.9562 12.4916 19.6746C12.1993 17.6191 12.4984 15.5229 13.354 13.6312L11.4026 12.5026ZM15.2724 14.7367C14.7016 16.0878 14.4796 17.5608 14.6267 19.0201C15.9618 18.4147 17.1251 17.4862 18.0114 16.3185L15.2724 14.7367V14.7367ZM7.5449 10.2762C6.33446 11.9631 4.66916 13.2709 2.7434 14.047C3.32519 15.6213 4.34454 16.9967 5.6815 18.0114L9.4974 11.4026L7.5449 10.2762V10.2762ZM19.7582 10.1332L19.4744 10.2652C18.2548 10.8676 17.1927 11.7464 16.3724 12.8315L19.1136 14.4144C19.683 13.0633 19.9046 11.591 19.7582 10.1321V10.1332ZM2.2 11C2.2 11.2926 2.2143 11.583 2.2418 11.8679C3.57885 11.2662 4.74314 10.3379 5.6276 9.1685L2.8864 7.5867C2.43185 8.66718 2.19846 9.8278 2.2 11V11ZM16.3185 3.9886L12.5026 10.5974L14.4551 11.7249C15.6655 10.037 17.3313 8.72839 19.2577 7.9519C18.7168 6.49137 17.7987 5.20018 16.5968 4.2097L16.3185 3.9886V3.9886ZM11 2.2C10.4907 2.2 9.9924 2.244 9.5073 2.3265C9.80016 4.38199 9.501 6.47837 8.6449 8.3699L10.5974 9.4974L14.4133 2.8864C13.3328 2.43185 12.1722 2.19846 11 2.2ZM7.3733 2.981L7.1632 3.0778C5.91525 3.68441 4.82769 4.57638 3.9886 5.6815L6.7276 7.2633C7.29819 5.9125 7.52022 4.43999 7.3733 2.981V2.981Z" fill="#1DAB87"/>
</svg>
