<svg width="12" height="12" viewBox="0 0 12 12" fill="none" xmlns="http://www.w3.org/2000/svg">
<path d="M9.45203 7.35337C9.30094 7.49979 9.23153 7.71154 9.26594 7.91921L9.78453 10.7892C9.82828 11.0325 9.72561 11.2786 9.52203 11.4192C9.32253 11.565 9.05711 11.5825 8.83953 11.4659L6.25594 10.1184C6.16611 10.0705 6.06636 10.0449 5.96428 10.042H5.80619C5.75136 10.0501 5.69769 10.0676 5.64869 10.0945L3.06453 11.4484C2.93678 11.5125 2.79211 11.5353 2.65036 11.5125C2.30503 11.4472 2.07461 11.1182 2.13119 10.7711L2.65036 7.90112C2.68478 7.69171 2.61536 7.47879 2.46428 7.33004L0.35786 5.28837C0.181693 5.11746 0.120443 4.86079 0.200943 4.62921C0.27911 4.39821 0.47861 4.22962 0.719526 4.19171L3.61869 3.77112C3.83919 3.74837 4.03286 3.61421 4.13203 3.41587L5.40953 0.796707C5.43986 0.738374 5.47894 0.684707 5.52619 0.639207L5.57869 0.598374C5.60611 0.568041 5.63761 0.542957 5.67261 0.522541L5.73619 0.499207L5.83536 0.458374H6.08094C6.30028 0.481124 6.49336 0.612374 6.59428 0.808374L7.88869 3.41587C7.98203 3.60662 8.16344 3.73904 8.37286 3.77112L11.272 4.19171C11.517 4.22671 11.7218 4.39587 11.8029 4.62921C11.8793 4.86312 11.8134 5.11979 11.6337 5.28837L9.45203 7.35337Z" fill="url(#paint0_linear_3378_38329)"/>
<defs>
<linearGradient id="paint0_linear_3378_38329" x1="11.8342" y1="11.5424" x2="-1.93439" y2="7.33999" gradientUnits="userSpaceOnUse">
<stop stop-color="#FB9400"/>
<stop offset="1" stop-color="#FFAB38"/>
</linearGradient>
</defs>
</svg>
