<svg width="21" height="20" viewBox="0 0 21 20" fill="none" xmlns="http://www.w3.org/2000/svg">
<path d="M15.9189 12.32C15.6599 12.571 15.5409 12.934 15.5999 13.29L16.4889 18.21C16.5639 18.627 16.3879 19.049 16.0389 19.29C15.6969 19.54 15.2419 19.57 14.8689 19.37L10.4399 17.06C10.2859 16.978 10.1149 16.934 9.93988 16.929H9.66888C9.57488 16.943 9.48288 16.973 9.39888 17.019L4.96888 19.34C4.74988 19.45 4.50188 19.489 4.25888 19.45C3.66688 19.338 3.27188 18.774 3.36888 18.179L4.25888 13.259C4.31788 12.9 4.19888 12.535 3.93988 12.28L0.328876 8.78C0.0268758 8.487 -0.0781242 8.047 0.0598758 7.65C0.193876 7.254 0.535876 6.965 0.948876 6.9L5.91888 6.179C6.29688 6.14 6.62888 5.91 6.79888 5.57L8.98888 1.08C9.04088 0.98 9.10788 0.888 9.18888 0.81L9.27888 0.74C9.32588 0.688 9.37988 0.645 9.43988 0.61L9.54888 0.57L9.71888 0.5H10.1399C10.5159 0.539 10.8469 0.764 11.0199 1.1L13.2389 5.57C13.3989 5.897 13.7099 6.124 14.0689 6.179L19.0389 6.9C19.4589 6.96 19.8099 7.25 19.9489 7.65C20.0799 8.051 19.9669 8.491 19.6589 8.78L15.9189 12.32Z" fill="white"/>
</svg>
