<svg width="16" height="16" viewBox="0 0 16 16" fill="none" xmlns="http://www.w3.org/2000/svg">
<path fill-rule="evenodd" clip-rule="evenodd" d="M5.03046 2.18529C5.14125 2.26526 5.31992 2.44896 5.31992 2.44896C6.01353 3.09905 7.05824 4.71596 7.39374 5.53629C7.40076 5.53629 7.59972 6.02406 7.60752 6.25606V6.28694C7.60752 6.64247 7.40856 6.97504 7.08867 7.14528C6.9568 7.21547 6.63604 7.28074 6.48129 7.31223C6.43004 7.32266 6.397 7.32939 6.39506 7.33136C5.93785 7.40104 5.23644 7.44696 4.46636 7.44696C3.65806 7.44696 2.92621 7.40104 2.47603 7.31552C2.46822 7.31552 2.05705 7.2308 1.91973 7.17616C1.72156 7.09143 1.55381 6.93624 1.44692 6.74303C1.37046 6.58863 1.33301 6.42551 1.33301 6.25606C1.34003 6.0779 1.45472 5.74533 1.50778 5.61389C1.84327 4.74684 2.94104 3.09113 3.61202 2.45688C3.68172 2.38615 3.76105 2.31204 3.81624 2.26048C3.84569 2.23296 3.86827 2.21187 3.87886 2.20112C4.0466 2.06968 4.25258 2 4.47416 2C4.67156 2 4.86973 2.06176 5.03046 2.18529ZM12.1521 6.77452C12.1521 7.12372 11.8736 7.40641 11.5295 7.40641C11.1854 7.40641 10.9069 7.12372 10.9069 6.77452L10.7352 3.72197C10.7352 3.27695 11.091 2.91667 11.5295 2.91667C11.968 2.91667 12.323 3.27695 12.323 3.72197L12.1521 6.77452ZM14.0796 8.82373C14.2778 8.90925 14.4455 9.06366 14.5524 9.25687C14.6289 9.41127 14.6663 9.57439 14.6663 9.74464C14.6593 9.92201 14.5446 10.2554 14.4908 10.3868C14.1561 11.2531 13.0575 12.9088 12.3873 13.5439C12.3188 13.613 12.2409 13.6856 12.1859 13.737L12.1858 13.737C12.1551 13.7657 12.1314 13.7878 12.1205 13.7989C11.952 13.9303 11.7468 14 11.526 14C11.327 14 11.1288 13.9382 10.9689 13.8139C10.8581 13.7347 10.6794 13.551 10.6794 13.551C9.98503 12.9017 8.9411 11.284 8.60561 10.4636C8.59781 10.4636 8.39963 9.97665 8.39183 9.74464V9.71376C8.39183 9.35743 8.59001 9.02486 8.91068 8.85461C9.04228 8.78515 9.36202 8.7197 9.51712 8.68795C9.5689 8.67735 9.60234 8.67051 9.60429 8.66853C10.0615 8.59885 10.7629 8.55292 11.533 8.55292C12.3413 8.55292 13.0731 8.59885 13.5233 8.68436C13.5303 8.68436 13.9423 8.76909 14.0796 8.82373ZM4.47003 8.59369C4.12595 8.59369 3.84741 8.87637 3.84741 9.22556L3.67577 12.278C3.67577 12.7231 4.03155 13.0833 4.47003 13.0833C4.90851 13.0833 5.26351 12.7231 5.26351 12.278L5.09264 9.22556C5.09264 8.87637 4.8141 8.59369 4.47003 8.59369Z" fill="#FF981F"/>
</svg>
