<svg width="20" height="20" viewBox="0 0 20 20" fill="none" xmlns="http://www.w3.org/2000/svg">
<path d="M4.35294 12.9474V14.6316C4.35282 15.0565 4.50228 15.4657 4.77137 15.7773C5.04046 16.0889 5.40929 16.2797 5.80392 16.3116L5.92157 16.3158H8.27451V18H5.92157C5.08952 18 4.29154 17.6451 3.70319 17.0134C3.11484 16.3817 2.78431 15.5249 2.78431 14.6316V12.9474H4.35294ZM14.549 8.73684L18 18H16.3098L15.3678 15.4737H12.16L11.2196 18H9.5302L12.9804 8.73684H14.549ZM13.7647 11.1663L12.7867 13.7895H14.7412L13.7647 11.1663ZM6.70588 2V3.68421H9.84314V9.57895H6.70588V12.1053H5.13725V9.57895H2V3.68421H5.13725V2H6.70588ZM13.7647 2.84211C14.5968 2.84211 15.3947 3.19699 15.9831 3.82869C16.5714 4.46039 16.902 5.31717 16.902 6.21053V7.89474H15.3333V6.21053C15.3333 5.76385 15.1681 5.33546 14.8739 5.01961C14.5797 4.70376 14.1807 4.52632 13.7647 4.52632H11.4118V2.84211H13.7647ZM5.13725 5.36842H3.56863V7.89474H5.13725V5.36842ZM8.27451 5.36842H6.70588V7.89474H8.27451V5.36842Z" fill="#7B61FF"/>
</svg>
