<svg width="28" height="28" viewBox="0 0 28 28" fill="none" xmlns="http://www.w3.org/2000/svg">
<path fill-rule="evenodd" clip-rule="evenodd" d="M23.0542 14.0012C23.0542 14.9502 23.8335 15.7224 24.7913 15.7224C25.2743 15.7224 25.6663 16.1109 25.6663 16.5895V19.7118C25.6663 22.3521 23.4987 24.5 20.834 24.5H7.16651C4.50184 24.5 2.33301 22.3521 2.33301 19.7118V16.5895C2.33301 16.1109 2.72501 15.7224 3.20801 15.7224C4.16701 15.7224 4.94634 14.9502 4.94634 14.0012C4.94634 13.0764 4.19851 12.3804 3.20801 12.3804C2.97584 12.3804 2.75417 12.2891 2.58967 12.1261C2.42517 11.9631 2.33301 11.7423 2.33301 11.5134L2.33534 8.28933C2.33534 5.64901 4.50301 3.5 7.16767 3.5H20.8317C23.4963 3.5 25.6652 5.64901 25.6652 8.28933L25.6663 11.4129C25.6663 11.6417 25.5742 11.8637 25.4108 12.0255C25.2463 12.1885 25.0247 12.2799 24.7913 12.2799C23.8335 12.2799 23.0542 13.0521 23.0542 14.0012ZM16.627 14.756L18.0025 13.4289C18.2417 13.2 18.3245 12.8625 18.2207 12.5504C18.118 12.2382 17.8497 12.0163 17.5253 11.9712L15.6248 11.6961L14.7743 9.98982C14.6285 9.69619 14.3322 9.51354 14.002 9.51239H13.9997C13.6707 9.51239 13.3743 9.69503 13.2262 9.98866L12.3757 11.6961L10.4787 11.9701C10.1508 12.0163 9.88251 12.2382 9.77867 12.5504C9.67601 12.8625 9.75884 13.2 9.99684 13.4289L11.3723 14.756L11.048 16.6322C10.992 16.9559 11.1238 17.2773 11.3922 17.4703C11.5438 17.5778 11.72 17.6333 11.8985 17.6333C12.035 17.6333 12.1727 17.5998 12.2987 17.5339L13.9997 16.6484L15.6972 17.5316C15.9912 17.6877 16.34 17.6634 16.6072 17.4692C16.8767 17.2773 17.0085 16.9559 16.9525 16.6322L16.627 14.756Z" fill="url(#paint0_linear_1436_24002)"/>
<defs>
<linearGradient id="paint0_linear_1436_24002" x1="25.6663" y1="24.5" x2="-1.60222" y2="15.7153" gradientUnits="userSpaceOnUse">
<stop stop-color="#FB9400"/>
<stop offset="1" stop-color="#FFAB38"/>
</linearGradient>
</defs>
</svg>
