<svg width="25" height="23" viewBox="0 0 25 23" fill="none" xmlns="http://www.w3.org/2000/svg">
<path fill-rule="evenodd" clip-rule="evenodd" d="M23.5362 15.5446H18.8135C16.6004 15.5446 14.799 13.7445 14.7979 11.5325C14.7979 9.31813 16.5992 7.51679 18.8135 7.51562H23.5362C24.0192 7.51562 24.4112 7.90763 24.4112 8.39063C24.4112 8.87363 24.0192 9.26563 23.5362 9.26563H18.8135C17.564 9.26679 16.5479 10.283 16.5479 11.5313C16.5479 12.7785 17.5652 13.7946 18.8135 13.7946H23.5362C24.0192 13.7946 24.4112 14.1866 24.4112 14.6696C24.4112 15.1526 24.0192 15.5446 23.5362 15.5446" fill="#212121"/>
<path fill-rule="evenodd" clip-rule="evenodd" d="M19.3474 12.334H18.9834C18.5004 12.334 18.1084 11.942 18.1084 11.459C18.1084 10.976 18.5004 10.584 18.9834 10.584H19.3474C19.8304 10.584 20.2224 10.976 20.2224 11.459C20.2224 11.942 19.8304 12.334 19.3474 12.334" fill="#212121"/>
<mask id="mask0_3384_34614" style="mask-type:luminance" maskUnits="userSpaceOnUse" x="0" y="0" width="25" height="23">
<path fill-rule="evenodd" clip-rule="evenodd" d="M0.333008 0.5H24.4114V22.8684H0.333008V0.5Z" fill="white"/>
</mask>
<g mask="url(#mask0_3384_34614)">
<path fill-rule="evenodd" clip-rule="evenodd" d="M7.33067 2.25C4.43734 2.25 2.08301 4.60433 2.08301 7.49767V15.8708C2.08301 18.7642 4.43734 21.1185 7.33067 21.1185H17.4153C20.3087 21.1185 22.6618 18.7642 22.6618 15.8708V7.49767C22.6618 4.60433 20.3087 2.25 17.4153 2.25H7.33067ZM17.4153 22.8685H7.33067C3.47251 22.8685 0.333008 19.729 0.333008 15.8708V7.49767C0.333008 3.63833 3.47251 0.5 7.33067 0.5H17.4153C21.2735 0.5 24.4118 3.63833 24.4118 7.49767V15.8708C24.4118 19.729 21.2735 22.8685 17.4153 22.8685V22.8685Z" fill="#212121"/>
</g>
<path fill-rule="evenodd" clip-rule="evenodd" d="M12.7988 7.54492H6.5C6.017 7.54492 5.625 7.15292 5.625 6.66992C5.625 6.18692 6.017 5.79492 6.5 5.79492H12.7988C13.2818 5.79492 13.6738 6.18692 13.6738 6.66992C13.6738 7.15292 13.2818 7.54492 12.7988 7.54492" fill="#212121"/>
</svg>
