<svg width="30" height="38" viewBox="0 0 30 38" fill="none" xmlns="http://www.w3.org/2000/svg">
<path d="M8.71914 33.7706C8.36572 33.7662 8.01379 33.7239 7.66942 33.6443C7.02194 33.4939 6.39346 33.2711 5.79588 32.98C5.68507 32.9257 5.59157 32.8416 5.52586 32.7372C5.46015 32.6327 5.42482 32.5121 5.42383 32.3887V25.0805C5.42383 24.9043 5.49382 24.7353 5.61842 24.6107C5.74301 24.4861 5.912 24.4161 6.08821 24.4161C6.26441 24.4161 6.4334 24.4861 6.55799 24.6107C6.68259 24.7353 6.75258 24.9043 6.75258 25.0805V31.9568C7.6362 32.3289 9.0314 32.7076 9.46988 32.196V29.957C9.46988 29.7808 9.53988 29.6119 9.66448 29.4873C9.78907 29.3627 9.95806 29.2927 10.1343 29.2927C10.3105 29.2927 10.4795 29.3627 10.604 29.4873C10.7286 29.6119 10.7986 29.7808 10.7986 29.957V32.3887C10.8001 32.4921 10.7773 32.5945 10.7322 32.6876C10.5411 33.0468 10.248 33.3413 9.8897 33.534C9.53144 33.7267 9.12412 33.8091 8.71914 33.7706Z" fill="#001133"/>
<path d="M18.1137 37.1987C17.8007 37.2046 17.4888 37.1597 17.1902 37.0658C14.5327 36.1755 6.42063 27.2397 1.45773 18.9682C0.00938804 16.5631 -0.362663 14.2378 0.354864 12.0653C1.68362 7.96608 6.42727 5.95966 6.62659 5.87329H6.67309C10.7125 4.51132 14.0344 7.74019 15.3631 9.88613C17.5755 10.0057 28.5975 11.1484 28.5975 21.8449C28.5975 30.1829 24.3389 34.1492 22.5052 35.4713C21.2461 36.4717 19.7169 37.0732 18.1137 37.1987ZM7.11823 7.10903C6.79268 7.2552 2.72669 9.10216 1.61054 12.4905C1.02589 14.2777 1.35807 16.2243 2.59382 18.2839C7.58993 26.6152 15.4894 35.0992 17.6087 35.8035C18.2133 36.0028 19.8012 35.8035 21.7212 34.4083C23.3888 33.2124 27.2621 29.5849 27.2621 21.8649C27.2621 11.3212 15.4761 11.2348 14.9712 11.2348C14.8546 11.2334 14.7404 11.2014 14.6401 11.1419C14.5398 11.0825 14.4569 10.9976 14.3998 10.896C14.2736 10.6568 11.3769 5.71384 7.11823 7.10903Z" fill="#001133"/>
<path d="M11.3107 7.58086H11.2509C11.0769 7.56562 10.916 7.48248 10.8028 7.34944C10.6897 7.21639 10.6335 7.04415 10.6463 6.86997C10.6463 6.6308 11.1646 1.0766 15.6557 0.179695C19.9011 -0.670708 24.0468 1.76756 24.2196 1.87386C24.3074 1.91005 24.3864 1.96466 24.4513 2.03398C24.5163 2.10331 24.5656 2.18575 24.5959 2.27575C24.6263 2.36575 24.637 2.46121 24.6273 2.55569C24.6177 2.65018 24.5878 2.7415 24.5399 2.82348C24.4919 2.90547 24.427 2.97623 24.3494 3.03098C24.2718 3.08573 24.1833 3.12321 24.09 3.14088C23.9967 3.15855 23.9006 3.156 23.8084 3.13342C23.7161 3.11083 23.6298 3.06873 23.5552 3.00994C23.5153 3.00994 19.6686 0.731128 15.9348 1.47523C12.4202 2.17947 11.995 6.92312 11.9884 6.96963C11.9749 7.13878 11.8971 7.29635 11.7711 7.41001C11.6451 7.52366 11.4804 7.58479 11.3107 7.58086Z" fill="#001133"/>
<path d="M15.5825 11.2282C15.4907 11.2268 15.4003 11.2065 15.3167 11.1684C15.2369 11.1331 15.1648 11.0824 15.1045 11.0192C15.0442 10.9561 14.997 10.8816 14.9655 10.8002C14.9341 10.7187 14.919 10.6319 14.9211 10.5446C14.9232 10.4573 14.9425 10.3713 14.9779 10.2914L16.692 6.39154L15.9346 0.91707C15.91 0.740867 15.9563 0.56208 16.0634 0.420042C16.1706 0.278004 16.3298 0.184349 16.506 0.15968C16.6822 0.135012 16.861 0.18135 17.003 0.288502C17.1451 0.395653 17.2387 0.554841 17.2634 0.731045L18.0739 6.39154C18.0911 6.51592 18.0727 6.64261 18.0208 6.75695L16.207 10.8296C16.1543 10.9505 16.0667 11.053 15.9555 11.124C15.8443 11.195 15.7144 11.2313 15.5825 11.2282Z" fill="#001133"/>
<path d="M20.3793 12.1982C20.2769 12.2012 20.1751 12.1805 20.082 12.1376C19.9889 12.0948 19.907 12.031 19.8426 11.9512C19.7783 11.8714 19.7333 11.7778 19.7111 11.6778C19.689 11.5777 19.6903 11.4739 19.7149 11.3744C20.9374 6.4115 26.2923 4.73062 28.0462 4.33199V2.94345C26.7772 2.82386 23.5152 3.68755 20.851 4.68411C20.766 4.71045 20.6765 4.71943 20.5879 4.71051C20.4993 4.70159 20.4134 4.67496 20.3354 4.6322C20.2573 4.58943 20.1886 4.53141 20.1334 4.46158C20.0781 4.39175 20.0375 4.31153 20.0139 4.22569L19.1834 1.08319C19.1615 0.998557 19.1564 0.91042 19.1686 0.823833C19.1807 0.737247 19.2099 0.653913 19.2543 0.578612C19.2988 0.50331 19.3576 0.437521 19.4275 0.385017C19.4975 0.332514 19.5771 0.294328 19.6618 0.27265C19.7464 0.250683 19.8345 0.245639 19.9211 0.257807C20.0077 0.269974 20.091 0.299113 20.1663 0.343553C20.2416 0.387994 20.3074 0.446861 20.3599 0.51678C20.4124 0.586699 20.4506 0.666294 20.4723 0.751001L21.0968 3.18927C23.0169 2.52489 27.4881 1.07655 29.0295 1.86051C29.1401 1.91623 29.2329 2.00173 29.2974 2.10739C29.362 2.21304 29.3958 2.33463 29.3949 2.45845V4.88343C29.3972 5.0417 29.3429 5.1956 29.2418 5.3174C29.1407 5.43921 28.9995 5.52091 28.8435 5.5478C28.777 5.5478 22.2528 6.7304 21.0237 11.7132C20.9844 11.8536 20.9 11.9771 20.7835 12.0647C20.6671 12.1523 20.525 12.1993 20.3793 12.1982Z" fill="#001133"/>
<path d="M6.87922 7.15556C6.70302 7.15556 6.53403 7.08556 6.40944 6.96097C6.28484 6.83637 6.21484 6.66739 6.21484 6.49118V0.824045C6.21484 0.647841 6.28484 0.478855 6.40944 0.35426C6.53403 0.229665 6.70302 0.159668 6.87922 0.159668H12.5464C12.7226 0.159668 12.8916 0.229665 13.0161 0.35426C13.1407 0.478855 13.2107 0.647841 13.2107 0.824045V3.17594C13.2107 3.35214 13.1407 3.52113 13.0161 3.64573C12.8916 3.77032 12.7226 3.84032 12.5464 3.84032C12.3702 3.84032 12.2012 3.77032 12.0766 3.64573C11.952 3.52113 11.882 3.35214 11.882 3.17594V1.48842H7.5436V6.49118C7.5436 6.66739 7.4736 6.83637 7.34901 6.96097C7.22441 7.08556 7.05542 7.15556 6.87922 7.15556Z" fill="#001133"/>
<path d="M3.25814 21.2537C3.09889 21.2557 2.94421 21.2005 2.82226 21.0981C2.70032 20.9956 2.61923 20.8528 2.59376 20.6956C2.59376 20.5561 2.14198 17.3737 6.62653 15.5799C10.1677 14.1581 12.1143 8.93613 12.1143 8.0658C12.0979 7.91086 12.1365 7.7551 12.2234 7.62574C12.3102 7.49638 12.4398 7.40166 12.5894 7.35813C12.7389 7.31459 12.8991 7.32502 13.0418 7.38758C13.1845 7.45015 13.3006 7.56087 13.37 7.70039C13.742 8.73018 11.3768 15.1016 7.09824 16.8156C3.63683 18.2042 3.87601 20.4099 3.88929 20.5096C3.91264 20.679 3.86972 20.851 3.76948 20.9896C3.66923 21.1282 3.51939 21.2228 3.35115 21.2537H3.25814Z" fill="#001133"/>
</svg>
