<svg width="36" height="30" viewBox="0 0 36 30" fill="none" xmlns="http://www.w3.org/2000/svg">
<path d="M24 7.02739e-05C21.4255 7.02739e-05 18.7189 1.43958 17.3716 4.50007H16.5C14.8462 4.50007 13.5 3.15457 13.5 1.50005C13.5 1.31843 13.434 1.14265 13.314 1.00638C13.2246 0.903094 12.3794 0 10.5 0C8.62059 0 7.77537 0.903094 7.686 1.00638C7.56591 1.14265 7.49995 1.31843 7.49995 1.50005C7.49995 6.46291 11.5371 10.5 16.5 10.5H16.7939C17.0925 11.3228 17.6027 12.0615 18.3208 12.5948C18.1553 13.2005 18.0717 13.8033 18.0717 14.3922C18.0717 15.3026 18.2533 16.194 18.6137 17.0501C17.685 17.5804 16.9907 18.4608 16.6859 19.5008C14.4857 19.5257 12.7909 19.9857 11.7362 20.8009C10.8792 20.2963 9.04381 19.5001 5.99991 19.5001C2.24269 19.5 0 23.1446 0 29.2501C0 29.6646 0.335461 30.0001 0.750023 30.0001H3.75005C4.16461 30.0001 4.50007 29.6646 4.50007 29.2501C4.50007 25.9542 5.22077 25.5001 6.00005 25.5001C6.56255 25.5001 6.67097 25.6378 6.93169 25.9703C7.25393 26.3805 7.74028 27.0001 9.00007 27.0001H10.982C11.8536 27.6857 15.1173 30.0002 19.5001 30.0002C25.207 30 36 26.8653 36 15C36 2.69466 27.3384 7.02739e-05 24 7.02739e-05ZM16.5 9.00007C12.4834 9.00007 9.19336 5.82574 9.00879 1.85386C9.25341 1.70374 9.72949 1.50012 10.5 1.50012C11.2998 1.50012 11.7817 1.71984 12.0146 1.8663C12.2022 4.17712 14.1416 6.00012 16.5 6.00012H16.8552C16.6292 6.89534 16.5 7.89145 16.5 9.00007ZM19.5 28.5C15.0424 28.5 11.7744 25.7124 11.7422 25.6839C11.6059 25.566 11.4301 25.5 11.25 25.5H9C8.4697 25.5 8.36571 25.3667 8.1123 25.0437C7.78563 24.6277 7.29197 24 5.99998 24C3.41156 24 3.05564 26.7393 3.00727 28.5H1.51467C1.61135 26.0472 2.26758 21 6.00005 21C8.49319 21 10.0254 21.5874 10.7696 21.9793C10.5923 22.3638 10.5 22.7886 10.5 23.25C10.5 23.6646 10.8355 24 11.2501 24C11.6646 24 12.0001 23.6646 12.0001 23.25C12.0001 22.8845 12.1217 22.5711 12.3385 22.3045C12.3517 22.2912 12.3649 22.2774 12.3781 22.2627C12.3942 22.2436 12.4103 22.2239 12.425 22.2041C13.2409 21.334 15.1042 21 16.8752 21C16.9353 21 16.9939 21.0066 17.0525 21.0118L17.2561 21.0272C17.6385 21.0572 17.99 20.7554 18.0354 20.3658C18.1584 19.3221 18.8718 18.4468 19.8532 18.1356C20.0671 18.0674 20.2399 17.907 20.3235 17.6983C20.4055 17.4895 20.3908 17.2544 20.2825 17.0574C19.8108 16.2056 19.572 15.3091 19.572 14.3921C19.572 13.782 19.6848 13.1719 19.9148 12.5274C20.0393 12.1802 19.8928 11.7942 19.5691 11.617C18.6006 11.086 18 10.0833 18 9.00007C18 3.84673 21.1099 1.50005 24 1.50005C26.9209 1.50005 34.5 3.92513 34.5 15C34.5 25.6788 24.6885 28.5 19.5 28.5Z" fill="white"/>
</svg>
