<svg width="40" height="34" viewBox="0 0 40 34" fill="none" xmlns="http://www.w3.org/2000/svg">
<path d="M2.64126 16.7062C4.2245 19.142 6.29488 20.4208 8.79153 20.4208C8.97421 20.4208 9.09599 20.4208 9.27868 20.4208C10.7401 20.299 11.958 19.7509 12.8105 18.7157C13.9066 17.437 14.4546 15.3057 12.6278 13.6007C12.3234 13.2962 11.8362 13.3571 11.5317 13.6616C11.2273 13.966 11.2882 14.4532 11.5926 14.7576C12.9323 15.9755 12.0798 17.3152 11.6535 17.8023C11.0446 18.5331 10.253 18.8984 9.15689 18.9593C6.96472 19.0811 5.25969 18.1068 3.85914 15.9755C3.18931 14.9403 2.76305 13.7225 2.51948 12.0174C2.45858 11.4694 2.39769 10.9213 2.3368 10.3124C2.3368 10.0688 2.2759 9.82526 2.2759 9.58169C2.33679 7.75487 2.51948 6.35432 3.2502 5.07555C4.71165 2.57891 6.66025 1.48283 9.52225 1.60461C10.5574 1.66551 11.3491 1.84819 11.958 2.27444C13.115 3.00517 13.7239 4.16215 13.7239 5.74538C13.7239 6.23253 13.663 6.65879 13.4803 7.02415C13.2977 7.38951 13.4803 7.87666 13.8457 8.05934C14.2111 8.24202 14.6982 8.05934 14.8809 7.69398C15.1245 7.08505 15.3071 6.47611 15.2463 5.74538C15.1854 3.61411 14.3937 2.03087 12.8105 0.995677C11.958 0.447634 10.9228 0.143165 9.58314 0.0822715C6.29488 -0.10041 3.73735 1.36104 2.03233 4.28394C1.11892 5.80628 0.875347 7.5113 0.814453 9.58169V9.64258V9.70347C0.814453 9.94705 0.875347 10.1906 0.875347 10.4342C0.93624 11.0431 0.997134 11.5912 1.05803 12.2001C1.3625 14.0878 1.84965 15.4884 2.64126 16.7062Z" fill="#001133"/>
<path d="M14.942 24.6833C14.3331 27.728 14.0895 30.5291 14.1504 33.2693C14.1504 33.6956 14.5158 34 14.8811 34C15.3074 34 15.6118 33.6347 15.6118 33.2084C15.5509 30.59 15.7945 27.9107 16.4035 24.9878V24.866C16.9515 22.1258 17.4995 19.2029 17.0733 16.3409C16.5861 13.0526 14.6375 10.4951 11.7146 9.27719C11.8973 8.30289 11.7755 7.2068 11.4102 6.04982C11.2884 5.62357 10.8621 5.44089 10.4359 5.56267C10.0096 5.68446 9.82694 6.11072 9.94873 6.53697C10.375 7.87663 10.3141 9.09451 9.88784 10.0079C9.46158 10.9213 8.60907 11.652 7.20851 12.261C6.84315 12.4437 6.66047 12.8699 6.84315 13.2353C6.96494 13.5397 7.26941 13.6615 7.51298 13.6615C7.63477 13.6615 7.69566 13.6615 7.81745 13.6006C9.52247 12.8699 10.6186 11.8956 11.1666 10.6777C13.4806 11.7129 15.0638 13.8442 15.4901 16.5235C15.9163 19.142 15.3683 21.8822 14.8202 24.5006L14.942 24.6833Z" fill="#001133"/>
<path d="M38.0818 4.28392C36.3768 1.36103 33.8193 -0.0395289 30.4092 0.0822584C29.0695 0.143152 28.0344 0.44762 27.1818 0.995664C25.5986 2.03086 24.7461 3.61409 24.7461 5.74537C24.7461 6.47609 24.8679 7.08503 25.1115 7.69397C25.2941 8.05933 25.7204 8.24201 26.1466 8.05933C26.512 7.87665 26.6947 7.45039 26.512 7.02414C26.3293 6.65878 26.2684 6.23252 26.2684 5.74537C26.3293 4.16214 26.8774 3.00516 28.0344 2.27443C28.6433 1.84818 29.4349 1.66549 30.4701 1.6046C33.3321 1.48281 35.3416 2.5789 36.7421 5.07554C37.4729 6.35431 37.6556 7.81576 37.7164 9.58167C37.7164 9.82525 37.6556 10.0688 37.6556 10.3124C37.5947 10.9213 37.5947 11.4694 37.4729 11.9565C37.2293 13.6615 36.803 14.8794 36.1332 15.9146C34.7327 18.0459 33.0276 19.0202 30.8355 18.8984C29.7394 18.8375 28.9478 18.4722 28.3388 17.7414C27.9126 17.2543 27.0601 15.9146 28.3997 14.6967C28.7042 14.3923 28.7042 13.9051 28.4606 13.6007C28.1561 13.2962 27.669 13.2962 27.3645 13.5398C25.4768 15.3057 26.0858 17.3761 27.1818 18.6548C28.0344 19.69 29.2522 20.2381 30.7137 20.3599C30.8964 20.3599 31.0181 20.3599 31.2008 20.3599C33.6975 20.3599 35.7678 19.142 37.3511 16.6453C38.1427 15.4275 38.6299 13.966 38.9343 12.0783C38.9952 11.4694 39.0561 10.9213 39.117 10.3124C39.117 10.0688 39.1779 9.82525 39.1779 9.58167V9.52078V9.45989C39.2388 7.51129 38.9952 5.80626 38.0818 4.28392Z" fill="#001133"/>
<path d="M22.9794 16.2799C22.5531 19.081 23.1012 21.7603 23.5883 24.4396L23.7101 24.9877C24.2581 27.8497 24.5017 30.529 24.4408 33.2083C24.4408 33.6346 24.7453 33.9999 25.1715 33.9999C25.5978 33.9999 25.9023 33.6955 25.9023 33.2692C25.9632 30.4681 25.7196 27.667 25.1107 24.7441L24.9889 24.1961C24.5017 21.6994 23.9537 19.081 24.3799 16.5843C24.8062 13.905 26.3894 11.7737 28.7034 10.7385C29.3123 11.9564 30.4084 12.9307 32.0525 13.6614C32.1743 13.7223 32.2352 13.7223 32.357 13.7223C32.6615 13.7223 32.905 13.5397 33.0268 13.2961C33.2095 12.9307 33.0268 12.4436 32.6615 12.3218C31.2609 11.7128 30.4084 10.9821 29.9821 10.0687C29.5559 9.09442 29.495 7.93744 29.9213 6.59778C30.043 6.17152 29.7995 5.74526 29.4341 5.62348C29.0078 5.50169 28.5816 5.74526 28.4598 6.11063C28.0944 7.26761 28.0335 8.36369 28.1553 9.33799C25.4151 10.4341 23.5274 12.9916 22.9794 16.2799Z" fill="#001133"/>
</svg>
